<svg width="34" height="34" viewBox="0 0 34 34" fill="none" xmlns="http://www.w3.org/2000/svg">
<rect x="0.791141" y="0.791141" width="32.1643" height="32.1643" rx="16.0821" fill="#455FD9" fill-opacity="0.1" stroke="#455FD9" stroke-width="0.417718" stroke-dasharray="2.51 2.51"/>
<path d="M21 14.5C21 14.697 20.9612 14.892 20.8858 15.074C20.8104 15.256 20.6999 15.4214 20.5607 15.5607C20.4214 15.6999 20.256 15.8104 20.074 15.8858C19.892 15.9612 19.697 16 19.5 16C19.303 16 19.108 15.9612 18.926 15.8858C18.744 15.8104 18.5786 15.6999 18.4393 15.5607C18.3001 15.4214 18.1896 15.256 18.1142 15.074C18.0388 14.892 18 14.697 18 14.5C18 14.1022 18.158 13.7206 18.4393 13.4393C18.7206 13.158 19.1022 13 19.5 13C19.8978 13 20.2794 13.158 20.5607 13.4393C20.842 13.7206 21 14.1022 21 14.5ZM20 14.5C20 14.3674 19.9473 14.2402 19.8536 14.1464C19.7598 14.0527 19.6326 14 19.5 14C19.3674 14 19.2402 14.0527 19.1464 14.1464C19.0527 14.2402 19 14.3674 19 14.5C19 14.6326 19.0527 14.7598 19.1464 14.8536C19.2402 14.9473 19.3674 15 19.5 15C19.6326 15 19.7598 14.9473 19.8536 14.8536C19.9473 14.7598 20 14.6326 20 14.5ZM10 13C10 12.2044 10.3161 11.4413 10.8787 10.8787C11.4413 10.3161 12.2044 10 13 10H21C21.7956 10 22.5587 10.3161 23.1213 10.8787C23.6839 11.4413 24 12.2044 24 13V21C24 21.7956 23.6839 22.5587 23.1213 23.1213C22.5587 23.6839 21.7956 24 21 24H13C12.2044 24 11.4413 23.6839 10.8787 23.1213C10.3161 22.5587 10 21.7956 10 21V13ZM13 11C12.4696 11 11.9609 11.2107 11.5858 11.5858C11.2107 11.9609 11 12.4696 11 13V21C11 21.373 11.102 21.722 11.28 22.02L15.949 17.432C16.2295 17.1566 16.6069 17.0022 17 17.0022C17.3931 17.0022 17.7705 17.1566 18.051 17.432L22.721 22.02C22.9038 21.7112 23.0002 21.3589 23 21V13C23 12.4696 22.7893 11.9609 22.4142 11.5858C22.0391 11.2107 21.5304 11 21 11H13ZM13 23H21C21.37 23 21.715 22.9 22.012 22.726L17.35 18.146C17.2565 18.0544 17.1309 18.0031 17 18.0031C16.8691 18.0031 16.7435 18.0544 16.65 18.146L11.988 22.726C12.295 22.9057 12.6443 23.0003 13 23Z" fill="#6335EC"/>
</svg>
