<svg width="34" height="34" viewBox="0 0 34 34" fill="none" xmlns="http://www.w3.org/2000/svg">
<rect width="34" height="34" rx="17" fill="url(#paint0_linear_1494_60151)"/>
<path d="M17.1023 15.3924C17.2031 15.0899 17.6303 15.0899 17.7311 15.3924L18.3223 17.1678C18.4524 17.5581 18.6716 17.9127 18.9626 18.2035C19.2536 18.4943 19.6083 18.7134 19.9987 18.8433L21.7731 19.4345C22.0756 19.5353 22.0756 19.9624 21.7731 20.0632L19.9978 20.6544C19.6075 20.7845 19.2529 21.0038 18.9621 21.2948C18.6712 21.5858 18.4522 21.9405 18.3223 22.3308L17.7311 24.1053C17.7093 24.1715 17.6672 24.2292 17.6108 24.2701C17.5543 24.311 17.4864 24.333 17.4167 24.333C17.347 24.333 17.2791 24.311 17.2226 24.2701C17.1662 24.2292 17.1241 24.1715 17.1023 24.1053L16.5111 22.3299C16.3811 21.9397 16.162 21.5852 15.8712 21.2944C15.5804 21.0036 15.2258 20.7845 14.8356 20.6544L13.0603 20.0632C12.994 20.0415 12.9363 19.9994 12.8955 19.9429C12.8546 19.8865 12.8325 19.8186 12.8325 19.7488C12.8325 19.6791 12.8546 19.6112 12.8955 19.5548C12.9363 19.4983 12.994 19.4562 13.0603 19.4345L14.8356 18.8433C15.2258 18.7132 15.5804 18.4941 15.8712 18.2033C16.162 17.9125 16.3811 17.558 16.5111 17.1678L17.1023 15.3924ZM13.5616 10.7188C13.5748 10.6791 13.6001 10.6446 13.634 10.6201C13.6679 10.5956 13.7086 10.5824 13.7504 10.5824C13.7922 10.5824 13.833 10.5956 13.8669 10.6201C13.9008 10.6446 13.9261 10.6791 13.9392 10.7188L14.294 11.7839C14.4525 12.2587 14.8246 12.6308 15.2994 12.7893L16.3645 13.1441C16.4042 13.1572 16.4387 13.1825 16.4632 13.2164C16.4877 13.2503 16.5009 13.2911 16.5009 13.3329C16.5009 13.3747 16.4877 13.4154 16.4632 13.4493C16.4387 13.4832 16.4042 13.5085 16.3645 13.5217L15.2994 13.8764C15.0653 13.9544 14.8525 14.0859 14.678 14.2604C14.5034 14.4349 14.372 14.6477 14.294 14.8819L13.9392 15.9469C13.9261 15.9866 13.9008 16.0212 13.8669 16.0456C13.833 16.0701 13.7922 16.0833 13.7504 16.0833C13.7086 16.0833 13.6679 16.0701 13.634 16.0456C13.6001 16.0212 13.5748 15.9866 13.5616 15.9469L13.2069 14.8819C13.1289 14.6477 12.9974 14.4349 12.8229 14.2604C12.6484 14.0859 12.4356 13.9544 12.2014 13.8764L11.1364 13.5217C11.0967 13.5085 11.0621 13.4832 11.0377 13.4493C11.0132 13.4154 11 13.3747 11 13.3329C11 13.2911 11.0132 13.2503 11.0377 13.2164C11.0621 13.1825 11.0967 13.1572 11.1364 13.1441L12.2014 12.7893C12.4356 12.7113 12.6484 12.5799 12.8229 12.4053C12.9974 12.2308 13.1289 12.018 13.2069 11.7839L13.5616 10.7188ZM20.0408 9.75734C20.0499 9.73124 20.0668 9.70861 20.0893 9.69259C20.1118 9.67658 20.1388 9.66797 20.1664 9.66797C20.194 9.66797 20.221 9.67658 20.2435 9.69259C20.266 9.70861 20.2829 9.73124 20.292 9.75734L20.5284 10.4668C20.6339 10.7839 20.8822 11.0323 21.1994 11.1377L21.9088 11.3742C21.9349 11.3832 21.9575 11.4002 21.9735 11.4227C21.9896 11.4452 21.9982 11.4721 21.9982 11.4997C21.9982 11.5274 21.9896 11.5543 21.9735 11.5768C21.9575 11.5993 21.9349 11.6163 21.9088 11.6253L21.1994 11.8618C21.0431 11.9138 20.9011 12.0015 20.7846 12.1179C20.6681 12.2344 20.5804 12.3764 20.5284 12.5327L20.292 13.2421C20.2829 13.2682 20.266 13.2909 20.2435 13.3069C20.221 13.3229 20.194 13.3315 20.1664 13.3315C20.1388 13.3315 20.1118 13.3229 20.0893 13.3069C20.0668 13.2909 20.0499 13.2682 20.0408 13.2421L19.8044 12.5327C19.7524 12.3764 19.6647 12.2344 19.5482 12.1179C19.4317 12.0015 19.2897 11.9138 19.1334 11.8618L18.4249 11.6253C18.3988 11.6163 18.3762 11.5993 18.3602 11.5768C18.3442 11.5543 18.3356 11.5274 18.3356 11.4997C18.3356 11.4721 18.3442 11.4452 18.3602 11.4227C18.3762 11.4002 18.3988 11.3832 18.4249 11.3742L19.1343 11.1377C19.4515 11.0323 19.6999 10.7839 19.8053 10.4668L20.0408 9.75825V9.75734Z" fill="white"/>
<defs>
<linearGradient id="paint0_linear_1494_60151" x1="33.4516" y1="2.83334" x2="-2.39566" y2="11.4279" gradientUnits="userSpaceOnUse">
<stop stop-color="#5E17EB"/>
<stop offset="1" stop-color="#8CA8FD"/>
</linearGradient>
</defs>
</svg>
