<svg width="224" height="40" viewBox="0 0 224 40" fill="black" xmlns="http://www.w3.org/2000/svg">
<path d="M0 8C0 3.58172 3.58172 0 8 0H216C220.418 0 224 3.58172 224 8V32C224 36.4183 220.418 40 216 40H8C3.58172 40 0 36.4183 0 32V8Z" fill="black"/>
<path d="M20.05 12.8C20.05 12.5714 20.126 12.3847 20.2554 12.2554C20.3847 12.126 20.5714 12.05 20.8 12.05C21.0286 12.05 21.2153 12.126 21.3446 12.2554C21.474 12.3847 21.55 12.5714 21.55 12.8V27.2C21.55 27.4286 21.474 27.6153 21.3446 27.7446C21.2153 27.874 21.0286 27.95 20.8 27.95C20.5714 27.95 20.3847 27.874 20.2554 27.7446C20.126 27.6153 20.05 27.4286 20.05 27.2V12.8ZM16.05 20.8C16.05 20.5714 16.126 20.3847 16.2554 20.2554C16.3847 20.126 16.5714 20.05 16.8 20.05C17.0286 20.05 17.2153 20.126 17.3446 20.2554C17.474 20.3847 17.55 20.5714 17.55 20.8V27.2C17.55 27.4286 17.474 27.6153 17.3446 27.7446C17.2153 27.874 17.0286 27.95 16.8 27.95C16.5714 27.95 16.3847 27.874 16.2554 27.7446C16.126 27.6153 16.05 27.4286 16.05 27.2V20.8ZM24.05 17.6C24.05 17.3714 24.126 17.1847 24.2554 17.0554C24.3847 16.926 24.5714 16.85 24.8 16.85C25.0286 16.85 25.2153 16.926 25.3446 17.0554C25.474 17.1847 25.55 17.3714 25.55 17.6V27.2C25.55 27.4286 25.474 27.6153 25.3446 27.7446C25.2153 27.874 25.0286 27.95 24.8 27.95C24.5714 27.95 24.3847 27.874 24.2554 27.7446C24.126 27.6153 24.05 27.4286 24.05 27.2V17.6ZM28.05 24C28.05 23.7714 28.126 23.5847 28.2554 23.4554C28.3847 23.326 28.5714 23.25 28.8 23.25C29.0286 23.25 29.2153 23.326 29.3446 23.4554C29.474 23.5847 29.55 23.7714 29.55 24V27.2C29.55 27.4286 29.474 27.6153 29.3446 27.7446C29.2153 27.874 29.0286 27.95 28.8 27.95C28.5714 27.95 28.3847 27.874 28.2554 27.7446C28.126 27.6153 28.05 27.4286 28.05 27.2V24Z" fill="#4B4652" stroke="white" stroke-width="0.1"/>
<path d="M43.2507 25H41.9581L45.6967 14.8182H46.9694L50.7081 25H49.4154L46.3728 16.429H46.2933L43.2507 25ZM43.7279 21.0227H48.9382V22.1165H43.7279V21.0227ZM53.3082 20.4062V25H52.1349V17.3636H53.2684V18.5568H53.3679C53.5468 18.169 53.8186 17.8575 54.1832 17.6222C54.5478 17.3835 55.0184 17.2642 55.5951 17.2642C56.1122 17.2642 56.5646 17.3703 56.9524 17.5824C57.3402 17.7912 57.6418 18.1094 57.8572 18.5369C58.0726 18.9612 58.1804 19.4981 58.1804 20.1477V25H57.0071V20.2273C57.0071 19.6274 56.8513 19.16 56.5397 18.8253C56.2282 18.4872 55.8006 18.3182 55.2571 18.3182C54.8825 18.3182 54.5478 18.3994 54.2528 18.5618C53.9611 18.7242 53.7308 18.9612 53.5617 19.2727C53.3927 19.5843 53.3082 19.9621 53.3082 20.4062ZM62.5715 25.179C62.0876 25.179 61.6485 25.0878 61.254 24.9055C60.8596 24.7199 60.5464 24.4531 60.3144 24.1051C60.0824 23.7538 59.9664 23.3295 59.9664 22.8324C59.9664 22.3949 60.0526 22.0402 60.2249 21.7685C60.3973 21.4934 60.6276 21.2779 60.916 21.1222C61.2043 20.9664 61.5225 20.8504 61.8705 20.7741C62.2218 20.6946 62.5748 20.6316 62.9295 20.5852C63.3935 20.5256 63.7697 20.4808 64.058 20.451C64.3497 20.4179 64.5618 20.3632 64.6944 20.2869C64.8303 20.2107 64.8982 20.0781 64.8982 19.8892V19.8494C64.8982 19.3589 64.764 18.9777 64.4955 18.706C64.2304 18.4342 63.8277 18.2983 63.2874 18.2983C62.7273 18.2983 62.2881 18.4209 61.9699 18.6662C61.6518 18.9115 61.428 19.1733 61.2988 19.4517L60.1851 19.054C60.384 18.59 60.6492 18.2287 60.9806 17.9702C61.3154 17.7083 61.6799 17.526 62.0744 17.4233C62.4721 17.3172 62.8632 17.2642 63.2476 17.2642C63.4929 17.2642 63.7746 17.294 64.0928 17.3537C64.4143 17.41 64.7242 17.5277 65.0225 17.7067C65.3241 17.8857 65.5744 18.1558 65.7732 18.517C65.9721 18.8783 66.0715 19.3622 66.0715 19.9688V25H64.8982V23.9659H64.8386C64.759 24.1316 64.6264 24.3089 64.4408 24.4979C64.2552 24.6868 64.0083 24.8475 63.7001 24.9801C63.3918 25.1127 63.0156 25.179 62.5715 25.179ZM62.7505 24.125C63.2145 24.125 63.6056 24.0339 63.9238 23.8516C64.2453 23.6693 64.4872 23.4339 64.6496 23.1456C64.8154 22.8572 64.8982 22.554 64.8982 22.2358V21.1619C64.8485 21.2216 64.7391 21.2763 64.5701 21.326C64.4044 21.3724 64.2121 21.4138 63.9934 21.4503C63.778 21.4834 63.5675 21.5133 63.362 21.5398C63.1598 21.563 62.9958 21.5829 62.8698 21.5994C62.5649 21.6392 62.2798 21.7038 62.0147 21.7933C61.7529 21.8795 61.5407 22.0104 61.3783 22.1861C61.2192 22.3584 61.1397 22.5937 61.1397 22.892C61.1397 23.2997 61.2905 23.608 61.5921 23.8168C61.897 24.0223 62.2832 24.125 62.7505 24.125ZM69.3863 14.8182V25H68.213V14.8182H69.3863ZM72.291 27.8636C72.0921 27.8636 71.9148 27.8471 71.759 27.8139C71.6032 27.7841 71.4955 27.7543 71.4359 27.7244L71.7342 26.6903C72.0192 26.7633 72.2711 26.7898 72.4898 26.7699C72.7086 26.75 72.9025 26.6522 73.0715 26.4766C73.2439 26.3042 73.4013 26.0241 73.5438 25.6364L73.7626 25.0398L70.9387 17.3636H72.2114L74.3194 23.4489H74.3989L76.5069 17.3636H77.7796L74.5381 26.1136C74.3923 26.508 74.2117 26.8345 73.9962 27.093C73.7808 27.3549 73.5306 27.5488 73.2455 27.6747C72.9638 27.8007 72.6456 27.8636 72.291 27.8636ZM82.6493 17.3636V18.358H78.6919V17.3636H82.6493ZM79.8453 15.5341H81.0186V22.8125C81.0186 23.1439 81.0667 23.3925 81.1628 23.5582C81.2622 23.7206 81.3882 23.83 81.5406 23.8864C81.6964 23.9394 81.8605 23.9659 82.0328 23.9659C82.1621 23.9659 82.2681 23.9593 82.351 23.946C82.4338 23.9295 82.5001 23.9162 82.5498 23.9062L82.7885 24.9602C82.7089 24.9901 82.5979 25.0199 82.4554 25.0497C82.3129 25.0829 82.1322 25.0994 81.9135 25.0994C81.582 25.0994 81.2572 25.0282 80.9391 24.8857C80.6242 24.7431 80.3623 24.526 80.1535 24.2344C79.948 23.9427 79.8453 23.5748 79.8453 23.1307V15.5341ZM84.4142 25V17.3636H85.5875V25H84.4142ZM85.0108 16.0909C84.7821 16.0909 84.5849 16.013 84.4192 15.8572C84.2568 15.7015 84.1756 15.5142 84.1756 15.2955C84.1756 15.0767 84.2568 14.8894 84.4192 14.7337C84.5849 14.5779 84.7821 14.5 85.0108 14.5C85.2395 14.5 85.435 14.5779 85.5974 14.7337C85.7632 14.8894 85.846 15.0767 85.846 15.2955C85.846 15.5142 85.7632 15.7015 85.5974 15.8572C85.435 16.013 85.2395 16.0909 85.0108 16.0909ZM90.8387 25.1591C90.1228 25.1591 89.5063 24.9901 88.9893 24.652C88.4723 24.3139 88.0745 23.8482 87.7961 23.255C87.5177 22.6617 87.3785 21.9839 87.3785 21.2216C87.3785 20.446 87.521 19.7616 87.8061 19.1683C88.0944 18.5717 88.4955 18.1061 89.0092 17.7713C89.5262 17.4332 90.1295 17.2642 90.8188 17.2642C91.3558 17.2642 91.8397 17.3636 92.2706 17.5625C92.7014 17.7614 93.0544 18.0398 93.3295 18.3977C93.6046 18.7557 93.7753 19.1733 93.8416 19.6506H92.6683C92.5788 19.3026 92.3799 18.9943 92.0717 18.7259C91.7668 18.4541 91.3558 18.3182 90.8387 18.3182C90.3813 18.3182 89.9803 18.4375 89.6356 18.6761C89.2942 18.9115 89.0274 19.2446 88.8352 19.6754C88.6463 20.103 88.5518 20.6051 88.5518 21.1818C88.5518 21.7718 88.6446 22.2855 88.8302 22.723C89.0191 23.1605 89.2843 23.5002 89.6257 23.7422C89.9704 23.9841 90.3747 24.1051 90.8387 24.1051C91.1437 24.1051 91.4204 24.0521 91.669 23.946C91.9176 23.84 92.128 23.6875 92.3004 23.4886C92.4727 23.2898 92.5954 23.0511 92.6683 22.7727H93.8416C93.7753 23.2235 93.6112 23.6295 93.3494 23.9908C93.0909 24.3487 92.7478 24.6338 92.3203 24.8459C91.896 25.0547 91.4022 25.1591 90.8387 25.1591ZM100.966 19.0739L99.9119 19.3722C99.8456 19.1965 99.7478 19.0258 99.6186 18.8601C99.4926 18.6911 99.3203 18.5518 99.1015 18.4425C98.8828 18.3331 98.6027 18.2784 98.2613 18.2784C97.794 18.2784 97.4045 18.3861 97.093 18.6016C96.7848 18.8137 96.6306 19.0838 96.6306 19.4119C96.6306 19.7036 96.7367 19.9339 96.9488 20.103C97.1609 20.272 97.4924 20.4129 97.9431 20.5256L99.0767 20.804C99.7594 20.9697 100.268 21.2232 100.603 21.5646C100.938 21.9027 101.105 22.3385 101.105 22.8722C101.105 23.3097 100.979 23.7008 100.727 24.0455C100.479 24.3902 100.131 24.6619 99.6832 24.8608C99.2358 25.0597 98.7154 25.1591 98.1221 25.1591C97.3432 25.1591 96.6986 24.9901 96.1882 24.652C95.6777 24.3139 95.3546 23.8201 95.2187 23.1705L96.3323 22.892C96.4384 23.303 96.6389 23.6113 96.9339 23.8168C97.2322 24.0223 97.6216 24.125 98.1022 24.125C98.6491 24.125 99.0833 24.009 99.4048 23.777C99.7296 23.5417 99.892 23.2599 99.892 22.9318C99.892 22.6667 99.7992 22.4446 99.6136 22.2656C99.428 22.0833 99.1429 21.9474 98.7585 21.858L97.4858 21.5597C96.7864 21.3939 96.2727 21.1371 95.9446 20.7891C95.6197 20.4377 95.4573 19.9986 95.4573 19.4716C95.4573 19.0407 95.5783 18.6596 95.8203 18.3281C96.0655 17.9967 96.3986 17.7365 96.8196 17.5476C97.2438 17.3587 97.7244 17.2642 98.2613 17.2642C99.017 17.2642 99.6103 17.4299 100.041 17.7614C100.475 18.0928 100.784 18.5303 100.966 19.0739Z" fill="#120F1A"/>
</svg>
