<svg width="95" height="18" viewBox="0 0 95 18" fill="none" xmlns="http://www.w3.org/2000/svg">
<rect x="0.00390625" width="95" height="18" rx="4" fill="#455FD9" fill-opacity="0.11"/>
<path d="M8.64311 12V6.18182H10.7738C11.1867 6.18182 11.5285 6.25 11.7994 6.38636C12.0702 6.52083 12.2728 6.7036 12.4073 6.93466C12.5418 7.16383 12.609 7.42235 12.609 7.71023C12.609 7.95265 12.5645 8.1572 12.4755 8.32386C12.3865 8.48864 12.2672 8.62121 12.1175 8.72159C11.9698 8.82008 11.8069 8.89205 11.6289 8.9375V8.99432C11.8221 9.00379 12.0105 9.06629 12.1942 9.18182C12.3799 9.29545 12.5333 9.45739 12.6545 9.66761C12.7757 9.87784 12.8363 10.1335 12.8363 10.4347C12.8363 10.732 12.7662 10.9991 12.6261 11.2358C12.4878 11.4706 12.2738 11.6572 11.984 11.7955C11.6942 11.9318 11.324 12 10.8732 12H8.64311ZM9.52095 11.2472H10.788C11.2085 11.2472 11.5096 11.1657 11.6914 11.0028C11.8732 10.84 11.9641 10.6364 11.9641 10.392C11.9641 10.2083 11.9177 10.0398 11.8249 9.88636C11.7321 9.73295 11.5996 9.6108 11.4272 9.51989C11.2567 9.42898 11.0541 9.38352 10.8192 9.38352H9.52095V11.2472ZM9.52095 8.69886H10.6971C10.8941 8.69886 11.0711 8.66098 11.2283 8.58523C11.3874 8.50947 11.5134 8.40341 11.6062 8.26705C11.7009 8.12879 11.7482 7.96591 11.7482 7.77841C11.7482 7.53788 11.6639 7.33617 11.4954 7.1733C11.3268 7.01042 11.0683 6.92898 10.7198 6.92898H9.52095V8.69886ZM15.1575 12V6.18182H18.8052V6.9375H16.0353V8.71023H18.6149V9.46307H16.0353V11.2443H18.8393V12H15.1575ZM20.9709 6.9375V6.18182H25.4737V6.9375H23.6584V12H22.7834V6.9375H20.9709ZM27.4618 6.9375V6.18182H31.9646V6.9375H30.1493V12H29.2743V6.9375H27.4618ZM34.2397 12V6.18182H37.8874V6.9375H35.1175V8.71023H37.6971V9.46307H35.1175V11.2443H37.9215V12H34.2397ZM40.34 12V6.18182H42.4138C42.8646 6.18182 43.2387 6.25947 43.536 6.41477C43.8353 6.57008 44.0587 6.78504 44.2065 7.05966C44.3542 7.33239 44.4281 7.64773 44.4281 8.00568C44.4281 8.36174 44.3532 8.67519 44.2036 8.94602C44.0559 9.21496 43.8324 9.42424 43.5332 9.57386C43.2358 9.72348 42.8618 9.7983 42.411 9.7983H40.84V9.04261H42.3315C42.6156 9.04261 42.8466 9.00189 43.0246 8.92045C43.2046 8.83902 43.3362 8.72064 43.4195 8.56534C43.5029 8.41004 43.5445 8.22348 43.5445 8.00568C43.5445 7.78598 43.5019 7.59564 43.4167 7.43466C43.3334 7.27367 43.2017 7.15057 43.0218 7.06534C42.8438 6.97822 42.6099 6.93466 42.3201 6.93466H41.2178V12H40.34ZM43.2121 9.375L44.6496 12H43.6496L42.2406 9.375H43.2121ZM55.0058 8.07386H54.1194C54.0854 7.88447 54.0219 7.7178 53.9291 7.57386C53.8363 7.42992 53.7227 7.30777 53.5882 7.20739C53.4537 7.10701 53.3032 7.03125 53.1365 6.98011C52.9717 6.92898 52.7965 6.90341 52.6109 6.90341C52.2757 6.90341 51.9755 6.98769 51.7104 7.15625C51.4471 7.32481 51.2388 7.57197 51.0854 7.89773C50.9338 8.22348 50.8581 8.62121 50.8581 9.09091C50.8581 9.56439 50.9338 9.96402 51.0854 10.2898C51.2388 10.6155 51.448 10.8617 51.7132 11.0284C51.9783 11.1951 52.2766 11.2784 52.6081 11.2784C52.7918 11.2784 52.966 11.2538 53.1308 11.2045C53.2975 11.1534 53.448 11.0786 53.5825 10.9801C53.717 10.8816 53.8306 10.7614 53.9234 10.6193C54.0181 10.4754 54.0835 10.3106 54.1194 10.125L55.0058 10.1278C54.9585 10.4138 54.8666 10.6771 54.7302 10.9176C54.5958 11.1562 54.4225 11.3627 54.2104 11.5369C54.0001 11.7093 53.7596 11.8428 53.4888 11.9375C53.2179 12.0322 52.9225 12.0795 52.6024 12.0795C52.0986 12.0795 51.6497 11.9602 51.2558 11.7216C50.8619 11.4811 50.5513 11.1373 50.324 10.6903C50.0986 10.2434 49.9859 9.71023 49.9859 9.09091C49.9859 8.4697 50.0996 7.93655 50.3268 7.49148C50.5541 7.04451 50.8647 6.7017 51.2586 6.46307C51.6526 6.22254 52.1005 6.10227 52.6024 6.10227C52.9111 6.10227 53.199 6.14678 53.466 6.2358C53.735 6.32292 53.9765 6.4517 54.1905 6.62216C54.4045 6.79072 54.5816 6.99716 54.7217 7.24148C54.8619 7.4839 54.9566 7.76136 55.0058 8.07386ZM57.3362 12V6.18182H58.2141V8.71023H61.1146V6.18182H61.9953V12H61.1146V9.46307H58.2141V12H57.3362ZM69.6077 9.09091C69.6077 9.71212 69.4941 10.2462 69.2668 10.6932C69.0395 11.1383 68.728 11.4811 68.3321 11.7216C67.9382 11.9602 67.4903 12.0795 66.9884 12.0795C66.4846 12.0795 66.0348 11.9602 65.639 11.7216C65.245 11.4811 64.9344 11.1373 64.7071 10.6903C64.4799 10.2434 64.3662 9.71023 64.3662 9.09091C64.3662 8.4697 64.4799 7.93655 64.7071 7.49148C64.9344 7.04451 65.245 6.7017 65.639 6.46307C66.0348 6.22254 66.4846 6.10227 66.9884 6.10227C67.4903 6.10227 67.9382 6.22254 68.3321 6.46307C68.728 6.7017 69.0395 7.04451 69.2668 7.49148C69.4941 7.93655 69.6077 8.4697 69.6077 9.09091ZM68.7384 9.09091C68.7384 8.61742 68.6617 8.21875 68.5083 7.89489C68.3568 7.56913 68.1484 7.32292 67.8833 7.15625C67.62 6.98769 67.3217 6.90341 66.9884 6.90341C66.6532 6.90341 66.3539 6.98769 66.0907 7.15625C65.8274 7.32292 65.6191 7.56913 65.4657 7.89489C65.3142 8.21875 65.2384 8.61742 65.2384 9.09091C65.2384 9.56439 65.3142 9.96402 65.4657 10.2898C65.6191 10.6136 65.8274 10.8598 66.0907 11.0284C66.3539 11.1951 66.6532 11.2784 66.9884 11.2784C67.3217 11.2784 67.62 11.1951 67.8833 11.0284C68.1484 10.8598 68.3568 10.6136 68.5083 10.2898C68.6617 9.96402 68.7384 9.56439 68.7384 9.09091ZM72.86 6.18182V12H71.9822V6.18182H72.86ZM80.2508 8.07386H79.3644C79.3304 7.88447 79.2669 7.7178 79.1741 7.57386C79.0813 7.42992 78.9677 7.30777 78.8332 7.20739C78.6987 7.10701 78.5482 7.03125 78.3815 6.98011C78.2167 6.92898 78.0415 6.90341 77.8559 6.90341C77.5207 6.90341 77.2205 6.98769 76.9554 7.15625C76.6921 7.32481 76.4838 7.57197 76.3304 7.89773C76.1788 8.22348 76.1031 8.62121 76.1031 9.09091C76.1031 9.56439 76.1788 9.96402 76.3304 10.2898C76.4838 10.6155 76.693 10.8617 76.9582 11.0284C77.2233 11.1951 77.5216 11.2784 77.8531 11.2784C78.0368 11.2784 78.211 11.2538 78.3758 11.2045C78.5425 11.1534 78.693 11.0786 78.8275 10.9801C78.962 10.8816 79.0756 10.7614 79.1684 10.6193C79.2631 10.4754 79.3285 10.3106 79.3644 10.125L80.2508 10.1278C80.2035 10.4138 80.1116 10.6771 79.9752 10.9176C79.8408 11.1562 79.6675 11.3627 79.4554 11.5369C79.2451 11.7093 79.0046 11.8428 78.7338 11.9375C78.4629 12.0322 78.1675 12.0795 77.8474 12.0795C77.3436 12.0795 76.8948 11.9602 76.5008 11.7216C76.1069 11.4811 75.7963 11.1373 75.569 10.6903C75.3436 10.2434 75.2309 9.71023 75.2309 9.09091C75.2309 8.4697 75.3446 7.93655 75.5718 7.49148C75.7991 7.04451 76.1097 6.7017 76.5037 6.46307C76.8976 6.22254 77.3455 6.10227 77.8474 6.10227C78.1561 6.10227 78.444 6.14678 78.711 6.2358C78.98 6.32292 79.2215 6.4517 79.4355 6.62216C79.6495 6.79072 79.8266 6.99716 79.9667 7.24148C80.1069 7.4839 80.2016 7.76136 80.2508 8.07386ZM82.5812 12V6.18182H86.229V6.9375H83.4591V8.71023H86.0386V9.46307H83.4591V11.2443H86.2631V12H82.5812Z" fill="#572CE6"/>
</svg>
