<svg width="16" height="16" viewBox="0 0 16 16"  xmlns="http://www.w3.org/2000/svg">
<path d="M2.87778 0H8.23333C8.61125 0 8.98546 0.0744358 9.33461 0.219058C9.68376 0.36368 10.001 0.575655 10.2682 0.842882C10.5355 1.11011 10.7474 1.42735 10.8921 1.7765C11.0367 2.12565 11.1111 2.49986 11.1111 2.87778V3C11.1111 3.14734 11.0526 3.28865 10.9484 3.39284C10.8442 3.49702 10.7029 3.55556 10.5556 3.55556C10.4082 3.55556 10.2669 3.49702 10.1627 3.39284C10.0585 3.28865 10 3.14734 10 3V2.87778C10 2.40923 9.81387 1.95987 9.48256 1.62856C9.15124 1.29724 8.70188 1.11111 8.23333 1.11111H2.87778C2.40923 1.11111 1.95987 1.29724 1.62856 1.62856C1.29724 1.95987 1.11111 2.40923 1.11111 2.87778V8.23333C1.11111 8.70188 1.29724 9.15124 1.62856 9.48256C1.95987 9.81387 2.40923 10 2.87778 10H8.04044C8.15302 9.40197 8.48453 8.86741 8.9702 8.50076C9.45587 8.1341 10.0608 7.96171 10.6668 8.01726C11.2728 8.07281 11.8363 8.35231 12.2472 8.80115C12.6581 9.24999 12.8869 9.83592 12.8889 10.4444C12.8895 11.0349 12.6763 11.6055 12.2888 12.051C11.9014 12.4965 11.3657 12.7867 10.7809 12.868C10.1961 12.9492 9.60168 12.8161 9.10741 12.4932C8.61314 12.1702 8.25245 11.6793 8.092 11.1111H2.87778C2.11454 11.1111 1.38257 10.8079 0.842882 10.2682C0.303194 9.72854 0 8.99657 0 8.23333V2.87778C0 2.11454 0.303194 1.38257 0.842882 0.842882C1.38257 0.303194 2.11454 0 2.87778 0ZM9.11111 10.4444C9.11111 10.7981 9.25159 11.1372 9.50164 11.3873C9.75168 11.6373 10.0908 11.7778 10.4444 11.7778C10.7981 11.7778 11.1372 11.6373 11.3873 11.3873C11.6373 11.1372 11.7778 10.7981 11.7778 10.4444C11.7778 10.0908 11.6373 9.75168 11.3873 9.50164C11.1372 9.25159 10.7981 9.11111 10.4444 9.11111C10.0908 9.11111 9.75168 9.25159 9.50164 9.50164C9.25159 9.75168 9.11111 10.0908 9.11111 10.4444ZM4.88889 13.2222V13C4.88889 12.8527 4.94742 12.7113 5.05161 12.6072C5.15579 12.503 5.2971 12.4444 5.44444 12.4444C5.59179 12.4444 5.7331 12.503 5.83728 12.6072C5.94147 12.7113 6 12.8527 6 13V13.2222C6 13.6642 6.17559 14.0882 6.48815 14.4007C6.80072 14.7133 7.22464 14.8889 7.66667 14.8889H13.2222C13.6642 14.8889 14.0882 14.7133 14.4007 14.4007C14.7133 14.0882 14.8889 13.6642 14.8889 13.2222V7.66667C14.8889 7.22464 14.7133 6.80072 14.4007 6.48815C14.0882 6.17559 13.6642 6 13.2222 6H7.96C7.84793 6.59853 7.51657 7.13372 7.03076 7.50086C6.54495 7.86799 5.93963 8.04066 5.33324 7.98508C4.72684 7.92949 4.163 7.64966 3.75203 7.20033C3.34105 6.751 3.11251 6.16449 3.11111 5.55556C3.11054 4.96514 3.32369 4.39446 3.71116 3.94898C4.09864 3.50349 4.63426 3.2133 5.21906 3.13203C5.80386 3.05075 6.39832 3.18388 6.89259 3.50682C7.38686 3.82977 7.74755 4.32069 7.908 4.88889H13.2222C13.9589 4.88889 14.6655 5.18155 15.1864 5.70248C15.7073 6.22342 16 6.92995 16 7.66667V13.2222C16 13.9589 15.7073 14.6655 15.1864 15.1864C14.6655 15.7073 13.9589 16 13.2222 16H7.66667C6.92995 16 6.22342 15.7073 5.70248 15.1864C5.18155 14.6655 4.88889 13.9589 4.88889 13.2222ZM5.55556 4.22222C5.20193 4.22222 4.86279 4.3627 4.61275 4.61275C4.3627 4.86279 4.22222 5.20193 4.22222 5.55556C4.22222 5.90918 4.3627 6.24832 4.61275 6.49836C4.86279 6.74841 5.20193 6.88889 5.55556 6.88889C5.90918 6.88889 6.24832 6.74841 6.49836 6.49836C6.74841 6.24832 6.88889 5.90918 6.88889 5.55556C6.88889 5.20193 6.74841 4.86279 6.49836 4.61275C6.24832 4.3627 5.90918 4.22222 5.55556 4.22222Z" />
</svg>
