 <svg width="35" height="35" viewBox="0 0 35 35" fill="none" xmlns="http://www.w3.org/2000/svg">
<rect width="34.2534" height="34.2534" rx="17.1267" fill="#455FD9" fill-opacity="0.1"/>
<path d="M17.5 12.8438C17.5 12.736 17.4572 12.6327 17.381 12.5565C17.3048 12.4803 17.2015 12.4375 17.0938 12.4375C16.986 12.4375 16.8827 12.4803 16.8065 12.5565C16.7303 12.6327 16.6875 12.736 16.6875 12.8438V17.3125C16.6875 17.3841 16.7065 17.4544 16.7424 17.5164C16.7784 17.5783 16.8301 17.6296 16.8922 17.6651L19.736 19.2901C19.8293 19.3406 19.9387 19.3525 20.0407 19.3234C20.1427 19.2943 20.2292 19.2264 20.2819 19.1343C20.3345 19.0422 20.349 18.9331 20.3223 18.8305C20.2956 18.7278 20.2298 18.6397 20.139 18.5849L17.5 17.0769V12.8438Z" fill="#5E17EB"/>
<path d="M17.5 23C19.2239 23 20.8772 22.3152 22.0962 21.0962C23.3152 19.8772 24 18.2239 24 16.5C24 14.7761 23.3152 13.1228 22.0962 11.9038C20.8772 10.6848 19.2239 10 17.5 10C15.7761 10 14.1228 10.6848 12.9038 11.9038C11.6848 13.1228 11 14.7761 11 16.5C11 18.2239 11.6848 19.8772 12.9038 21.0962C14.1228 22.3152 15.7761 23 17.5 23ZM23.1875 16.5C23.1875 18.0084 22.5883 19.4551 21.5217 20.5217C20.4551 21.5883 19.0084 22.1875 17.5 22.1875C15.9916 22.1875 14.5449 21.5883 13.4783 20.5217C12.4117 19.4551 11.8125 18.0084 11.8125 16.5C11.8125 14.9916 12.4117 13.5449 13.4783 12.4783C14.5449 11.4117 15.9916 10.8125 17.5 10.8125C19.0084 10.8125 20.4551 11.4117 21.5217 12.4783C22.5883 13.5449 23.1875 14.9916 23.1875 16.5Z" fill="#5E17EB"/>
</svg>