<svg width="34" height="24" viewBox="0 0 34 24" fill="none" xmlns="http://www.w3.org/2000/svg">
<rect x="0.00390625" width="34" height="24" rx="7" fill="url(#paint0_linear_1494_60663)" fill-opacity="0.04"/>
<rect x="0.503906" y="0.5" width="33" height="23" rx="6.5" stroke="#5E17EB" stroke-opacity="0.11"/>
<path d="M15.6719 6.67188C15.3186 6.67188 14.9798 6.81221 14.73 7.06202C14.4802 7.31182 14.3398 7.65063 14.3398 8.00391V14.6641C14.3398 15.0173 14.4802 15.3561 14.73 15.606C14.9798 15.8558 15.3186 15.9961 15.6719 15.9961H19.668C20.0212 15.9961 20.3601 15.8558 20.6099 15.606C20.8597 15.3561 21 15.0173 21 14.6641V8.00391C21 7.65063 20.8597 7.31182 20.6099 7.06202C20.3601 6.81221 20.0212 6.67188 19.668 6.67188H15.6719ZM15.0059 8.00391C15.0059 7.82727 15.076 7.65786 15.2009 7.53296C15.3258 7.40806 15.4952 7.33789 15.6719 7.33789H19.668C19.8446 7.33789 20.014 7.40806 20.1389 7.53296C20.2638 7.65786 20.334 7.82727 20.334 8.00391V14.6641C20.334 14.8407 20.2638 15.0101 20.1389 15.135C20.014 15.2599 19.8446 15.3301 19.668 15.3301H15.6719C15.4952 15.3301 15.3258 15.2599 15.2009 15.135C15.076 15.0101 15.0059 14.8407 15.0059 14.6641V8.00391ZM13.0078 9.33594C13.0078 9.10212 13.0694 8.87243 13.1863 8.66994C13.3032 8.46745 13.4713 8.29931 13.6738 8.1824V14.9971C13.6738 15.4387 13.8493 15.8622 14.1615 16.1744C14.4738 16.4867 14.8973 16.6621 15.3389 16.6621H19.4895C19.3726 16.8646 19.2044 17.0327 19.0019 17.1497C18.7994 17.2666 18.5698 17.3281 18.3359 17.3281H15.3389C14.7206 17.3281 14.1277 17.0825 13.6906 16.6454C13.2534 16.2082 13.0078 15.6153 13.0078 14.9971V9.33594Z" fill="#5828E7"/>
<defs>
<linearGradient id="paint0_linear_1494_60663" x1="33.4555" y1="2" x2="-0.531452" y2="13.5438" gradientUnits="userSpaceOnUse">
<stop stop-color="#5E17EB"/>
<stop offset="1" stop-color="#455FD9"/>
</linearGradient>
</defs>
</svg>
