<svg width="32" height="32" viewBox="0 0 32 32" fill="none" xmlns="http://www.w3.org/2000/svg">
<rect width="31.7466" height="31.7466" rx="15.8733" fill="#455FD9" fill-opacity="0.1"/>
<path d="M17.5827 11.6664L20.8902 14.9649M11.1079 20.5509L11.4777 17.9822C11.4977 17.8144 11.5754 17.6588 11.6974 17.5419L18.9462 10.2939C19.0394 10.199 19.1556 10.1298 19.2834 10.0929C19.4112 10.056 19.5464 10.0526 19.6759 10.0832C20.3445 10.2612 20.9525 10.6168 21.4354 11.1122C21.9352 11.5932 22.2941 12.2016 22.4734 12.8717C22.5013 13.0013 22.4966 13.1359 22.4597 13.2632C22.4228 13.3906 22.3548 13.5068 22.2619 13.6014L15.0139 20.8494C14.8889 20.9647 14.7331 21.0413 14.5654 21.0699L11.9877 21.4389C11.8676 21.4552 11.7454 21.4433 11.6307 21.4043C11.516 21.3652 11.4119 21.3001 11.3266 21.2141C11.2413 21.128 11.1772 21.0233 11.1393 20.9082C11.1013 20.7932 11.0906 20.6709 11.1079 20.5509Z" stroke="#5E17EB" stroke-linecap="round" stroke-linejoin="round"/>
</svg>