<svg width="13" height="13" viewBox="0 0 13 13" fill="none" xmlns="http://www.w3.org/2000/svg">
<path d="M7.48281 2.60394L10.7903 5.90244M1.00806 11.4884L1.37781 8.91969C1.39788 8.75192 1.47555 8.59632 1.59756 8.47944L8.84631 1.23144C8.93958 1.13655 9.05573 1.06731 9.18355 1.03039C9.31138 0.993473 9.44656 0.990132 9.57606 1.02069C10.2446 1.19871 10.8526 1.55427 11.3356 2.04969C11.8353 2.53074 12.1942 3.13912 12.3736 3.80919C12.4015 3.93883 12.3968 4.07337 12.3598 4.20073C12.3229 4.3281 12.255 4.44431 12.1621 4.53894L4.91406 11.7869C4.78902 11.9022 4.63323 11.9788 4.46556 12.0074L1.88781 12.3764C1.76773 12.3927 1.64554 12.3808 1.53083 12.3418C1.41612 12.3027 1.31203 12.2376 1.22676 12.1516C1.14148 12.0655 1.07735 11.9608 1.0394 11.8457C1.00145 11.7307 0.99072 11.6084 1.00806 11.4884Z" stroke="#5E17EB" stroke-linecap="round" stroke-linejoin="round"/>
</svg>
