<svg width="16" height="16" viewBox="0 0 16 16" fill="none" xmlns="http://www.w3.org/2000/svg">
<path d="M4.494 6.075C4.539 5.78 4.833 5.5 5.248 5.5C5.663 5.5 5.957 5.78 6.002 6.075C6.00963 6.14178 6.03065 6.20633 6.0638 6.2648C6.09695 6.32326 6.14154 6.37445 6.19492 6.41529C6.2483 6.45613 6.30936 6.4858 6.37446 6.50251C6.43956 6.51922 6.50737 6.52263 6.57381 6.51254C6.64026 6.50245 6.704 6.47907 6.76121 6.44379C6.81841 6.40851 6.86792 6.36206 6.90677 6.30722C6.94562 6.25237 6.97302 6.19026 6.98732 6.12459C7.00162 6.05891 7.00253 5.99103 6.99 5.925C6.863 5.09 6.104 4.5 5.248 4.5C4.392 4.5 3.633 5.09 3.506 5.925C3.49347 5.99103 3.49438 6.05891 3.50868 6.12459C3.52298 6.19026 3.55038 6.25237 3.58923 6.30722C3.62808 6.36206 3.67759 6.40851 3.73479 6.44379C3.792 6.47907 3.85574 6.50245 3.92219 6.51254C3.98863 6.52263 4.05644 6.51922 4.12154 6.50251C4.18664 6.4858 4.2477 6.45613 4.30108 6.41529C4.35446 6.37445 4.39905 6.32326 4.4322 6.2648C4.46535 6.20633 4.48637 6.14178 4.494 6.075ZM10.748 5.5C10.333 5.5 10.04 5.78 9.994 6.075C9.96988 6.20215 9.89739 6.315 9.79178 6.3898C9.68617 6.46461 9.55567 6.49556 9.42771 6.47613C9.29976 6.45671 9.18432 6.38842 9.10567 6.28564C9.02703 6.18286 8.9913 6.05358 9.006 5.925C9.133 5.09 9.892 4.5 10.748 4.5C11.604 4.5 12.363 5.09 12.49 5.925C12.5047 6.05358 12.469 6.18286 12.3903 6.28564C12.3117 6.38842 12.1962 6.45671 12.0683 6.47613C11.9403 6.49556 11.8098 6.46461 11.7042 6.3898C11.5986 6.315 11.5261 6.20215 11.502 6.075C11.456 5.78 11.163 5.5 10.748 5.5ZM3.495 8C3.42526 8.00008 3.3563 8.01476 3.29257 8.04307C3.22883 8.07139 3.17173 8.11273 3.12492 8.16444C3.07811 8.21614 3.04264 8.27707 3.02078 8.34329C2.99893 8.40952 2.99117 8.47959 2.998 8.549C3.236 10.992 5.154 13 7.995 13C10.836 13 12.755 10.992 12.993 8.549C12.9998 8.47951 12.9921 8.40936 12.9701 8.34306C12.9482 8.27676 12.9127 8.21579 12.8657 8.16407C12.8188 8.11235 12.7616 8.07103 12.6977 8.04277C12.6339 8.01451 12.5648 7.99994 12.495 8H3.495ZM7.995 12C5.914 12 4.479 10.697 4.083 9H11.908C11.511 10.697 10.077 12 7.995 12ZM8 0C5.87827 0 3.84344 0.842855 2.34315 2.34315C0.842855 3.84344 0 5.87827 0 8C0 10.1217 0.842855 12.1566 2.34315 13.6569C3.84344 15.1571 5.87827 16 8 16C10.1217 16 12.1566 15.1571 13.6569 13.6569C15.1571 12.1566 16 10.1217 16 8C16 5.87827 15.1571 3.84344 13.6569 2.34315C12.1566 0.842855 10.1217 0 8 0ZM1 8C1 7.08075 1.18106 6.1705 1.53284 5.32122C1.88463 4.47194 2.40024 3.70026 3.05025 3.05025C3.70026 2.40024 4.47194 1.88463 5.32122 1.53284C6.1705 1.18106 7.08075 1 8 1C8.91925 1 9.8295 1.18106 10.6788 1.53284C11.5281 1.88463 12.2997 2.40024 12.9497 3.05025C13.5998 3.70026 14.1154 4.47194 14.4672 5.32122C14.8189 6.1705 15 7.08075 15 8C15 9.85652 14.2625 11.637 12.9497 12.9497C11.637 14.2625 9.85652 15 8 15C6.14348 15 4.36301 14.2625 3.05025 12.9497C1.7375 11.637 1 9.85652 1 8Z" fill="#4B4652"/>
</svg>
