<svg width="9" height="9" viewBox="0 0 9 9" fill="none" xmlns="http://www.w3.org/2000/svg">
<path d="M4.6626 0.277344C5.43196 0.277344 6.16636 0.487171 6.83081 0.871854C7.49526 1.25654 8.01983 1.7811 8.40451 2.44556C8.7892 3.11001 8.99902 3.8444 8.99902 4.61377C8.99902 5.40062 8.7892 6.11753 8.40451 6.78198C8.01983 7.44643 7.49526 7.98849 6.83081 8.37317C6.16636 8.75785 5.43196 8.95019 4.6626 8.95019C3.87575 8.95019 3.15884 8.75785 2.49438 8.37317C1.82993 7.98849 1.28788 7.44643 0.903196 6.78198C0.518513 6.11753 0.326172 5.40062 0.326172 4.61377C0.326172 3.8444 0.518513 3.11001 0.903196 2.44556C1.28788 1.7811 1.82993 1.25654 2.49438 0.871854C3.15884 0.487171 3.87575 0.277344 4.6626 0.277344ZM4.6626 8.11089C5.29208 8.11089 5.8691 7.95352 6.41116 7.63877C6.93572 7.32403 7.37286 6.90438 7.6876 6.36233C8.00234 5.83776 8.15971 5.24325 8.15971 4.61377C8.15971 4.334 8.12474 4.05423 8.0548 3.77446H7.74006C7.65263 3.77446 7.58269 3.80943 7.53023 3.86189C7.47778 3.91435 7.46029 3.9668 7.46029 4.03674V4.15914C7.46029 4.28154 7.40783 4.36897 7.30292 4.40394L7.04064 4.54383C6.93572 4.59628 6.84829 4.59628 6.77835 4.52634L6.44613 4.31651C6.37618 4.28154 6.28876 4.26406 6.21881 4.28154L6.16636 4.29903C6.07893 4.334 6.02647 4.38646 5.9915 4.47388C5.95653 4.56131 5.97402 4.63125 6.02647 4.7012L6.25379 5.05091C6.30624 5.13834 6.37618 5.17331 6.4811 5.17331H6.63847C6.70841 5.17331 6.76087 5.20828 6.81332 5.26074C6.86578 5.31319 6.90075 5.36565 6.90075 5.43559V5.64542C6.90075 5.71536 6.88327 5.76782 6.84829 5.80279L6.51607 6.23993C6.4811 6.2749 6.46361 6.32736 6.46361 6.36233L6.39367 6.74701C6.37618 6.81695 6.34121 6.86941 6.30624 6.90438C6.13139 7.06175 5.9915 7.23661 5.8691 7.41146L5.64179 7.76117C5.53688 7.90106 5.41448 7.971 5.23962 7.971C5.13471 7.971 5.04728 7.95352 4.97734 7.90106C4.90739 7.86609 4.83745 7.79614 4.80248 7.70872C4.69757 7.51638 4.6626 7.30655 4.6626 7.07924V6.55467C4.6626 6.48473 4.62763 6.43227 4.57517 6.37981C4.52271 6.32736 4.47026 6.29238 4.40031 6.29238H3.94569C3.66592 6.29238 3.43861 6.20496 3.26375 6.01262C3.07141 5.83776 2.98398 5.61045 2.98398 5.33068V5.08588C2.98398 4.94599 3.01895 4.80611 3.08889 4.66623C3.15884 4.52634 3.24626 4.42143 3.36866 4.334L3.84077 3.9668C4.01563 3.8444 4.20797 3.77446 4.4178 3.77446H4.43528C4.57517 3.77446 4.73254 3.80943 4.87242 3.87937L5.11722 4.00177C5.18716 4.03674 5.25711 4.05423 5.32705 4.01926L6.14887 3.73949C6.20133 3.73949 6.25379 3.70452 6.28876 3.65206C6.32373 3.61709 6.34121 3.54715 6.34121 3.47721C6.34121 3.40726 6.30624 3.35481 6.25379 3.30235C6.20133 3.24989 6.14887 3.21492 6.07893 3.21492H5.88659C5.81665 3.21492 5.7467 3.19744 5.69425 3.12749L5.58933 3.02258C5.51939 2.97012 5.46693 2.93515 5.39699 2.93515H3.8058C3.73586 2.93515 3.66592 2.91767 3.61346 2.86521C3.561 2.81275 3.54352 2.74281 3.54352 2.67287V2.58544C3.54352 2.53298 3.561 2.48053 3.59598 2.42807C3.63095 2.37561 3.6834 2.34064 3.75335 2.32316L3.99814 2.25321C4.06809 2.25321 4.12054 2.21824 4.15551 2.1483L4.2954 1.93847C4.34786 1.86853 4.4178 1.81608 4.52271 1.81608H4.94237C5.01231 1.81608 5.08225 1.79859 5.13471 1.74613C5.18716 1.69368 5.22214 1.62373 5.22214 1.55379V1.16911C5.01231 1.13414 4.83745 1.11665 4.6626 1.11665C4.03312 1.11665 3.43861 1.27402 2.91404 1.58876C2.37199 1.9035 1.95233 2.34064 1.63759 2.86521C1.32285 3.40726 1.16548 3.98429 1.16548 4.61377C1.16548 5.24325 1.32285 5.83776 1.63759 6.36233C1.95233 6.90438 2.37199 7.32403 2.91404 7.63877C3.43861 7.95352 4.03312 8.11089 4.6626 8.11089Z" fill="#606770"/>
</svg>
