<svg width="359" height="59" viewBox="0 0 359 59" fill="none" xmlns="http://www.w3.org/2000/svg">
<path d="M0 0.181641H359V56.5831C359 57.9016 357.931 58.9705 356.613 58.9705H2.38736C1.06886 58.9705 0 57.9016 0 56.5831V0.181641Z" fill="white"/>
<path d="M0.447631 0.629272H358.552V56.5831C358.552 57.6544 357.684 58.5229 356.613 58.5229H2.38736C1.31608 58.5229 0.447631 57.6544 0.447631 56.5831V0.629272Z" stroke="black" stroke-opacity="0.15" stroke-width="0.895262"/>
<g clip-path="url(#clip0_1494_59465)">
<g clip-path="url(#clip1_1494_59465)">
<g clip-path="url(#clip2_1494_59465)">
<g clip-path="url(#clip3_1494_59465)">
<g clip-path="url(#clip4_1494_59465)">
<circle cx="28.6309" cy="14.3555" r="7.01288" fill="url(#paint0_linear_1494_59465)" stroke="white" stroke-width="1.19368"/>
<path d="M31.1237 11.9566C31.3802 12.1874 31.5725 12.4567 31.6751 12.7773C31.7777 13.1106 31.7905 13.4312 31.7136 13.7646C31.6367 14.098 31.4828 14.3801 31.252 14.6109L28.7772 17.1755C28.6874 17.2652 28.5848 17.3037 28.4823 17.3037C28.3668 17.3037 28.2643 17.2652 28.1873 17.1755L25.7125 14.6237C25.4689 14.3801 25.315 14.098 25.2381 13.7646C25.1612 13.4312 25.1868 13.1106 25.2894 12.7773C25.392 12.4567 25.5715 12.1874 25.8408 11.9566C26.0716 11.7643 26.328 11.636 26.623 11.5847C26.9051 11.5334 27.2 11.5591 27.4821 11.6488C27.7642 11.7514 28.0078 11.9053 28.2258 12.1233L28.4823 12.3797L28.7387 12.1233C28.9439 11.9053 29.2003 11.7514 29.4824 11.6488C29.7645 11.5591 30.0466 11.5334 30.3416 11.5847C30.6237 11.636 30.8929 11.7643 31.1237 11.9566Z" fill="white"/>
</g>
</g>
<g clip-path="url(#clip5_1494_59465)">
<circle cx="15.7989" cy="14.3555" r="7.01288" fill="url(#paint1_linear_1494_59465)" stroke="white" stroke-width="1.19368"/>
<path d="M13.7008 14.0207C13.7777 14.0207 13.8546 14.0592 13.9187 14.1105C13.97 14.1746 14.0085 14.2515 14.0085 14.3285V17.4059C14.0085 17.4957 13.97 17.5726 13.9187 17.6239C13.8546 17.688 13.7777 17.7137 13.7008 17.7137H12.6749C12.5852 17.7137 12.5082 17.688 12.4569 17.6239C12.3928 17.5726 12.3672 17.4957 12.3672 17.4059V14.3285C12.3672 14.2515 12.3928 14.1746 12.4569 14.1105C12.5082 14.0592 12.5852 14.0207 12.6749 14.0207H13.7008ZM13.1878 17.2008C13.2648 17.2008 13.3417 17.1751 13.4058 17.111C13.4571 17.0597 13.4956 16.9828 13.4956 16.893C13.4956 16.8161 13.4571 16.7392 13.4058 16.675C13.3417 16.6238 13.2648 16.5853 13.1878 16.5853C13.0981 16.5853 13.0211 16.6238 12.9699 16.675C12.9057 16.7392 12.8801 16.8161 12.8801 16.893C12.8801 16.9828 12.9057 17.0597 12.9699 17.111C13.0211 17.1751 13.0981 17.2008 13.1878 17.2008ZM17.2911 12.1871C17.2911 11.7768 17.1757 11.4947 16.9449 11.3151C16.791 11.2126 16.5987 11.1484 16.3679 11.1484C16.2525 11.1484 16.1499 11.251 16.073 11.4305C16.0217 11.5331 15.9832 11.687 15.9319 11.8793V11.8922C15.8806 12.0845 15.8422 12.2255 15.8165 12.3025C15.7652 12.4564 15.6883 12.5718 15.6113 12.6487C15.4703 12.7769 15.3036 12.9949 15.0984 13.2898C14.842 13.6489 14.6368 13.9182 14.4701 14.0977C14.4317 14.1233 14.4188 14.1618 14.4188 14.2003V16.9443C14.4188 16.9956 14.4317 17.0341 14.4573 17.0597C14.4829 17.0854 14.5214 17.0982 14.5727 17.0982C14.7138 17.0982 14.9317 17.1751 15.2267 17.3034C15.5216 17.4316 15.7524 17.5213 15.9319 17.5726C16.214 17.6752 16.4961 17.7137 16.7782 17.7137H16.8167C17.1885 17.7137 17.4706 17.7009 17.6502 17.6624C17.9451 17.6111 18.1503 17.5085 18.2657 17.3418C18.3682 17.188 18.4067 16.9956 18.3554 16.7648C18.458 16.6494 18.5221 16.4955 18.5734 16.316C18.6119 16.1365 18.6119 15.9698 18.5606 15.8031C18.6632 15.662 18.7273 15.4954 18.7529 15.303C18.7657 15.1235 18.7401 14.944 18.676 14.7773H18.6888C18.7529 14.7003 18.8042 14.6106 18.8555 14.4952C18.9068 14.3926 18.9324 14.2772 18.9324 14.149C18.9324 13.9566 18.8555 13.7899 18.7016 13.6361C18.5478 13.4822 18.3682 13.4052 18.1631 13.4052H16.868C16.8808 13.3283 16.9321 13.1873 17.0347 13.0077C17.1116 12.8539 17.1757 12.7385 17.2142 12.6487C17.2655 12.4948 17.2911 12.341 17.2911 12.1871Z" fill="white"/>
</g>
</g>
<path d="M41.7652 14.4776L41.0751 14.3005L41.4155 10.9199H44.8986V11.7173H42.1475L41.9424 13.5637C42.0667 13.4922 42.2237 13.4254 42.4133 13.3632C42.6061 13.3011 42.8268 13.27 43.0755 13.27C43.3894 13.27 43.6707 13.3244 43.9194 13.4332C44.1681 13.5389 44.3795 13.6912 44.5536 13.8901C44.7308 14.0891 44.866 14.3284 44.9592 14.6082C45.0525 14.888 45.0991 15.2004 45.0991 15.5454C45.0991 15.8718 45.054 16.1718 44.9639 16.4454C44.8769 16.7189 44.7447 16.9583 44.5676 17.1634C44.3904 17.3655 44.1666 17.5225 43.8961 17.6344C43.6288 17.7463 43.3133 17.8022 42.9496 17.8022C42.676 17.8022 42.4164 17.7649 42.1709 17.6903C41.9284 17.6126 41.7108 17.496 41.5181 17.3406C41.3284 17.1821 41.173 16.9862 41.0518 16.7531C40.9337 16.5169 40.8591 16.2402 40.828 15.9231H41.6486C41.6859 16.178 41.7605 16.3925 41.8724 16.5666C41.9844 16.7407 42.1305 16.8728 42.3107 16.9629C42.4942 17.05 42.7071 17.0935 42.9496 17.0935C43.1547 17.0935 43.3366 17.0577 43.4951 16.9862C43.6536 16.9148 43.7873 16.8122 43.8961 16.6785C44.0049 16.5448 44.0873 16.3832 44.1432 16.1936C44.2023 16.0039 44.2318 15.791 44.2318 15.5548C44.2318 15.3403 44.2023 15.1413 44.1432 14.9579C44.0842 14.7745 43.9956 14.6144 43.8775 14.4776C43.7624 14.3409 43.621 14.2352 43.4531 14.1606C43.2853 14.0829 43.0925 14.044 42.8749 14.044C42.5859 14.044 42.3667 14.0829 42.2175 14.1606C42.0714 14.2383 41.9206 14.344 41.7652 14.4776ZM50.6339 15.4242V16.133H45.7286V15.6247L48.7688 10.9199H49.4728L48.7175 12.2815L46.7078 15.4242H50.6339ZM49.6873 10.9199V17.709H48.8247V10.9199H49.6873ZM54.2522 10.8826V17.709H53.3896V11.9597L51.6504 12.5939V11.8152L54.117 10.8826H54.2522Z" fill="#606770"/>
</g>
<g clip-path="url(#clip6_1494_59465)">
<path d="M249.316 17.0002V17.709H244.873V17.0888L247.097 14.6129C247.37 14.3082 247.582 14.0502 247.731 13.8388C247.883 13.6244 247.989 13.4332 248.048 13.2653C248.11 13.0943 248.141 12.9203 248.141 12.7431C248.141 12.5193 248.095 12.3172 248.001 12.1369C247.911 11.9535 247.778 11.8074 247.6 11.6986C247.423 11.5898 247.209 11.5354 246.957 11.5354C246.655 11.5354 246.404 11.5945 246.202 11.7126C246.003 11.8276 245.853 11.9893 245.754 12.1975C245.655 12.4058 245.605 12.6452 245.605 12.9156H244.742C244.742 12.5333 244.826 12.1835 244.994 11.8665C245.162 11.5494 245.411 11.2976 245.74 11.1111C246.07 10.9215 246.475 10.8267 246.957 10.8267C247.386 10.8267 247.753 10.9028 248.057 11.0551C248.362 11.2043 248.595 11.4157 248.757 11.6893C248.922 11.9597 249.004 12.2768 249.004 12.6405C249.004 12.8394 248.97 13.0415 248.901 13.2467C248.836 13.4487 248.744 13.6508 248.626 13.8528C248.511 14.0549 248.376 14.2538 248.221 14.4497C248.068 14.6455 247.905 14.8382 247.731 15.0279L245.913 17.0002H249.316ZM253.55 10.9106H253.625V11.6427H253.55C253.093 11.6427 252.711 11.7173 252.403 11.8665C252.095 12.0126 251.851 12.21 251.671 12.4586C251.491 12.7042 251.36 12.9809 251.279 13.2886C251.202 13.5964 251.163 13.9088 251.163 14.2259V15.2237C251.163 15.5252 251.199 15.7926 251.27 16.0257C251.342 16.2557 251.44 16.45 251.564 16.6086C251.688 16.7671 251.828 16.8868 251.984 16.9676C252.142 17.0484 252.307 17.0888 252.478 17.0888C252.677 17.0888 252.854 17.0515 253.009 16.9769C253.165 16.8992 253.295 16.792 253.401 16.6552C253.51 16.5153 253.592 16.3505 253.648 16.1609C253.704 15.9713 253.732 15.763 253.732 15.5361C253.732 15.3341 253.707 15.1398 253.657 14.9533C253.608 14.7636 253.532 14.5958 253.429 14.4497C253.326 14.3005 253.197 14.1839 253.042 14.1C252.89 14.0129 252.708 13.9694 252.496 13.9694C252.257 13.9694 252.033 14.0285 251.825 14.1466C251.62 14.2616 251.45 14.4139 251.317 14.6035C251.186 14.7901 251.112 14.9937 251.093 15.2144L250.636 15.2097C250.68 14.8616 250.76 14.5647 250.878 14.3191C251 14.0704 251.149 13.8684 251.326 13.7129C251.506 13.5544 251.707 13.4394 251.928 13.3679C252.151 13.2933 252.388 13.256 252.636 13.256C252.975 13.256 253.267 13.3197 253.513 13.4472C253.759 13.5746 253.961 13.7456 254.119 13.9601C254.278 14.1715 254.394 14.4108 254.469 14.6782C254.547 14.9424 254.585 15.2144 254.585 15.4941C254.585 15.8143 254.54 16.1143 254.45 16.3941C254.36 16.6738 254.225 16.9194 254.045 17.1308C253.867 17.3422 253.648 17.5069 253.387 17.6251C253.126 17.7432 252.823 17.8022 252.478 17.8022C252.111 17.8022 251.791 17.7276 251.517 17.5784C251.244 17.4261 251.017 17.2241 250.836 16.9723C250.656 16.7205 250.521 16.4407 250.431 16.133C250.341 15.8252 250.296 15.5128 250.296 15.1957V14.7901C250.296 14.3113 250.344 13.842 250.44 13.3819C250.537 12.9218 250.703 12.5053 250.939 12.1322C251.178 11.7592 251.509 11.4624 251.932 11.2417C252.355 11.0209 252.894 10.9106 253.55 10.9106ZM262.302 15.5501H263.198C263.151 15.9791 263.028 16.363 262.829 16.7018C262.63 17.0406 262.349 17.3095 261.985 17.5085C261.622 17.7043 261.168 17.8022 260.624 17.8022C260.226 17.8022 259.864 17.7276 259.537 17.5784C259.214 17.4292 258.936 17.2178 258.703 16.9443C258.47 16.6676 258.289 16.3366 258.162 15.9511C258.037 15.5625 257.975 15.1304 257.975 14.6548V13.9787C257.975 13.5031 258.037 13.0726 258.162 12.6871C258.289 12.2986 258.471 11.9659 258.707 11.6893C258.947 11.4126 259.234 11.1997 259.57 11.0505C259.906 10.9013 260.283 10.8267 260.703 10.8267C261.216 10.8267 261.65 10.923 262.004 11.1158C262.358 11.3085 262.633 11.5758 262.829 11.9178C263.028 12.2566 263.151 12.6498 263.198 13.0975H262.302C262.259 12.7804 262.178 12.5084 262.06 12.2815C261.942 12.0514 261.774 11.8742 261.556 11.7499C261.339 11.6256 261.054 11.5634 260.703 11.5634C260.401 11.5634 260.136 11.6209 259.906 11.7359C259.679 11.8509 259.488 12.0141 259.332 12.2255C259.18 12.4369 259.065 12.6902 258.987 12.9855C258.909 13.2809 258.871 13.6088 258.871 13.9694V14.6548C258.871 14.9875 258.905 15.2999 258.973 15.5921C259.045 15.8843 259.152 16.1407 259.295 16.3614C259.438 16.5821 259.62 16.7562 259.84 16.8837C260.061 17.008 260.322 17.0702 260.624 17.0702C261.006 17.0702 261.311 17.0096 261.538 16.8883C261.765 16.7671 261.936 16.593 262.051 16.3661C262.169 16.1392 262.253 15.8672 262.302 15.5501ZM264.065 15.2424V15.1351C264.065 14.7714 264.118 14.4341 264.223 14.1233C264.329 13.8093 264.481 13.5373 264.68 13.3073C264.879 13.0741 265.12 12.8938 265.403 12.7664C265.686 12.6358 266.003 12.5706 266.354 12.5706C266.709 12.5706 267.027 12.6358 267.31 12.7664C267.596 12.8938 267.839 13.0741 268.038 13.3073C268.24 13.5373 268.394 13.8093 268.499 14.1233C268.605 14.4341 268.658 14.7714 268.658 15.1351V15.2424C268.658 15.6061 268.605 15.9433 268.499 16.2542C268.394 16.565 268.24 16.837 268.038 17.0702C267.839 17.3002 267.598 17.4805 267.315 17.6111C267.035 17.7385 266.718 17.8022 266.364 17.8022C266.009 17.8022 265.691 17.7385 265.408 17.6111C265.125 17.4805 264.882 17.3002 264.68 17.0702C264.481 16.837 264.329 16.565 264.223 16.2542C264.118 15.9433 264.065 15.6061 264.065 15.2424ZM264.928 15.1351V15.2424C264.928 15.4941 264.957 15.7319 265.016 15.9558C265.075 16.1765 265.164 16.3723 265.282 16.5433C265.403 16.7142 265.554 16.8495 265.734 16.9489C265.915 17.0453 266.124 17.0935 266.364 17.0935C266.6 17.0935 266.807 17.0453 266.984 16.9489C267.164 16.8495 267.313 16.7142 267.431 16.5433C267.55 16.3723 267.638 16.1765 267.697 15.9558C267.759 15.7319 267.791 15.4941 267.791 15.2424V15.1351C267.791 14.8864 267.759 14.6517 267.697 14.431C267.638 14.2072 267.548 14.0098 267.427 13.8388C267.309 13.6648 267.159 13.528 266.979 13.4285C266.802 13.329 266.594 13.2793 266.354 13.2793C266.118 13.2793 265.91 13.329 265.73 13.4285C265.552 13.528 265.403 13.6648 265.282 13.8388C265.164 14.0098 265.075 14.2072 265.016 14.431C264.957 14.6517 264.928 14.8864 264.928 15.1351ZM270.598 13.6663V17.709H269.73V12.6638H270.551L270.598 13.6663ZM270.42 14.9952L270.019 14.9812C270.022 14.6362 270.068 14.3176 270.155 14.0254C270.242 13.73 270.371 13.4736 270.542 13.256C270.713 13.0384 270.925 12.8705 271.18 12.7524C271.435 12.6312 271.731 12.5706 272.066 12.5706C272.303 12.5706 272.52 12.6047 272.719 12.6731C272.918 12.7384 273.091 12.8426 273.237 12.9855C273.383 13.1285 273.496 13.3119 273.577 13.5358C273.658 13.7596 273.698 14.03 273.698 14.3471V17.709H272.836V14.3891C272.836 14.1248 272.791 13.9134 272.7 13.7549C272.613 13.5964 272.489 13.4814 272.327 13.4099C272.166 13.3353 271.976 13.298 271.759 13.298C271.504 13.298 271.291 13.343 271.12 13.4332C270.949 13.5233 270.812 13.6477 270.709 13.8062C270.607 13.9647 270.532 14.1466 270.486 14.3518C270.442 14.5538 270.42 14.7683 270.42 14.9952ZM273.689 14.5196L273.111 14.6968C273.114 14.4201 273.159 14.1544 273.246 13.8995C273.336 13.6446 273.465 13.4176 273.633 13.2187C273.804 13.0197 274.014 12.8628 274.263 12.7477C274.511 12.6296 274.796 12.5706 275.116 12.5706C275.386 12.5706 275.626 12.6063 275.834 12.6778C276.045 12.7493 276.222 12.8596 276.365 13.0089C276.512 13.155 276.622 13.343 276.697 13.5731C276.771 13.8031 276.808 14.0766 276.808 14.3937V17.709H275.941V14.3844C275.941 14.1015 275.896 13.8824 275.806 13.7269C275.719 13.5684 275.595 13.458 275.433 13.3959C275.274 13.3306 275.085 13.298 274.864 13.298C274.674 13.298 274.507 13.3306 274.36 13.3959C274.214 13.4612 274.092 13.5513 273.992 13.6663C273.893 13.7782 273.816 13.9072 273.764 14.0533C273.714 14.1994 273.689 14.3549 273.689 14.5196ZM278.972 13.6663V17.709H278.105V12.6638H278.925L278.972 13.6663ZM278.795 14.9952L278.394 14.9812C278.397 14.6362 278.442 14.3176 278.529 14.0254C278.616 13.73 278.745 13.4736 278.916 13.256C279.087 13.0384 279.3 12.8705 279.555 12.7524C279.81 12.6312 280.105 12.5706 280.441 12.5706C280.677 12.5706 280.895 12.6047 281.094 12.6731C281.292 12.7384 281.465 12.8426 281.611 12.9855C281.757 13.1285 281.871 13.3119 281.952 13.5358C282.032 13.7596 282.073 14.03 282.073 14.3471V17.709H281.21V14.3891C281.21 14.1248 281.165 13.9134 281.075 13.7549C280.988 13.5964 280.864 13.4814 280.702 13.4099C280.54 13.3353 280.351 13.298 280.133 13.298C279.878 13.298 279.665 13.343 279.494 13.4332C279.323 13.5233 279.186 13.6477 279.084 13.8062C278.981 13.9647 278.907 14.1466 278.86 14.3518C278.817 14.5538 278.795 14.7683 278.795 14.9952ZM282.063 14.5196L281.485 14.6968C281.488 14.4201 281.533 14.1544 281.62 13.8995C281.711 13.6446 281.84 13.4176 282.007 13.2187C282.178 13.0197 282.388 12.8628 282.637 12.7477C282.886 12.6296 283.17 12.5706 283.49 12.5706C283.761 12.5706 284 12.6063 284.208 12.6778C284.42 12.7493 284.597 12.8596 284.74 13.0089C284.886 13.155 284.996 13.343 285.071 13.5731C285.146 13.8031 285.183 14.0766 285.183 14.3937V17.709H284.316V14.3844C284.316 14.1015 284.27 13.8824 284.18 13.7269C284.093 13.5684 283.969 13.458 283.807 13.3959C283.649 13.3306 283.459 13.298 283.238 13.298C283.049 13.298 282.881 13.3306 282.735 13.3959C282.589 13.4612 282.466 13.5513 282.366 13.6663C282.267 13.7782 282.191 13.9072 282.138 14.0533C282.088 14.1994 282.063 14.3549 282.063 14.5196ZM288.582 17.8022C288.231 17.8022 287.912 17.7432 287.626 17.6251C287.343 17.5038 287.099 17.3344 286.894 17.1168C286.692 16.8992 286.537 16.6412 286.428 16.3428C286.319 16.0444 286.265 15.718 286.265 15.3636V15.1677C286.265 14.7574 286.325 14.3922 286.446 14.072C286.568 13.7487 286.732 13.4751 286.941 13.2513C287.149 13.0275 287.385 12.8581 287.649 12.7431C287.914 12.6281 288.187 12.5706 288.47 12.5706C288.831 12.5706 289.142 12.6327 289.403 12.7571C289.667 12.8814 289.883 13.0555 290.051 13.2793C290.219 13.5 290.343 13.7611 290.424 14.0627C290.505 14.3611 290.545 14.6875 290.545 15.0419V15.4289H286.778V14.7248H289.682V14.6595C289.67 14.4357 289.623 14.2181 289.543 14.0067C289.465 13.7953 289.341 13.6212 289.17 13.4845C288.999 13.3477 288.765 13.2793 288.47 13.2793C288.274 13.2793 288.094 13.3213 287.929 13.4052C287.764 13.486 287.623 13.6073 287.505 13.7689C287.387 13.9305 287.295 14.1279 287.23 14.3611C287.165 14.5942 287.132 14.8631 287.132 15.1677V15.3636C287.132 15.6029 287.165 15.8283 287.23 16.0397C287.298 16.248 287.396 16.4314 287.524 16.5899C287.654 16.7484 287.811 16.8728 287.995 16.9629C288.181 17.0531 288.392 17.0982 288.629 17.0982C288.933 17.0982 289.191 17.036 289.403 16.9116C289.614 16.7873 289.799 16.621 289.958 16.4127L290.48 16.8277C290.371 16.9925 290.233 17.1494 290.065 17.2987C289.897 17.4479 289.69 17.5691 289.445 17.6624C289.202 17.7556 288.915 17.8022 288.582 17.8022ZM292.415 13.7409V17.709H291.552V12.6638H292.368L292.415 13.7409ZM292.21 14.9952L291.851 14.9812C291.854 14.6362 291.905 14.3176 292.005 14.0254C292.104 13.73 292.244 13.4736 292.424 13.256C292.604 13.0384 292.819 12.8705 293.068 12.7524C293.319 12.6312 293.598 12.5706 293.902 12.5706C294.151 12.5706 294.375 12.6047 294.574 12.6731C294.773 12.7384 294.942 12.8441 295.082 12.9902C295.225 13.1363 295.334 13.3259 295.408 13.5591C295.483 13.7891 295.52 14.0704 295.52 14.403V17.709H294.653V14.3937C294.653 14.1295 294.614 13.9181 294.536 13.7596C294.459 13.5979 294.345 13.4814 294.196 13.4099C294.047 13.3353 293.863 13.298 293.646 13.298C293.431 13.298 293.236 13.343 293.058 13.4332C292.884 13.5233 292.734 13.6477 292.606 13.8062C292.482 13.9647 292.384 14.1466 292.312 14.3518C292.244 14.5538 292.21 14.7683 292.21 14.9952ZM298.943 12.6638V13.3259H296.215V12.6638H298.943ZM297.138 11.4375H298.001V16.4593C298.001 16.6303 298.027 16.7593 298.08 16.8464C298.133 16.9334 298.201 16.9909 298.285 17.0189C298.369 17.0469 298.459 17.0609 298.556 17.0609C298.627 17.0609 298.702 17.0546 298.78 17.0422C298.86 17.0267 298.921 17.0142 298.961 17.0049L298.966 17.709C298.898 17.7307 298.808 17.7509 298.696 17.7696C298.587 17.7914 298.455 17.8022 298.299 17.8022C298.088 17.8022 297.894 17.7603 297.717 17.6763C297.539 17.5924 297.398 17.4525 297.292 17.2567C297.19 17.0577 297.138 16.7904 297.138 16.4547V11.4375ZM302.892 16.3708C302.892 16.2464 302.864 16.1314 302.808 16.0257C302.755 15.9169 302.645 15.819 302.477 15.7319C302.312 15.6418 302.064 15.5641 301.731 15.4988C301.451 15.4397 301.198 15.3698 300.971 15.289C300.747 15.2082 300.556 15.1102 300.398 14.9952C300.242 14.8802 300.123 14.745 300.039 14.5896C299.955 14.4341 299.913 14.2523 299.913 14.044C299.913 13.8451 299.956 13.657 300.043 13.4798C300.133 13.3026 300.259 13.1456 300.421 13.0089C300.586 12.8721 300.783 12.7648 301.013 12.6871C301.243 12.6094 301.5 12.5706 301.782 12.5706C302.187 12.5706 302.532 12.6421 302.818 12.785C303.104 12.928 303.323 13.1192 303.475 13.3586C303.627 13.5948 303.704 13.8575 303.704 14.1466H302.841C302.841 14.0067 302.799 13.8715 302.715 13.7409C302.634 13.6073 302.515 13.4969 302.356 13.4099C302.201 13.3228 302.009 13.2793 301.782 13.2793C301.543 13.2793 301.349 13.3166 301.2 13.3912C301.054 13.4627 300.946 13.5544 300.878 13.6663C300.813 13.7782 300.78 13.8964 300.78 14.0207C300.78 14.1139 300.796 14.1979 300.827 14.2725C300.861 14.344 300.92 14.4108 301.004 14.473C301.088 14.532 301.206 14.588 301.358 14.6408C301.51 14.6937 301.705 14.7465 301.941 14.7994C302.354 14.8926 302.695 15.0045 302.962 15.1351C303.23 15.2657 303.428 15.4258 303.559 15.6154C303.69 15.805 303.755 16.035 303.755 16.3055C303.755 16.5262 303.708 16.7282 303.615 16.9116C303.525 17.095 303.393 17.2536 303.219 17.3872C303.048 17.5178 302.843 17.6204 302.603 17.695C302.367 17.7665 302.101 17.8022 301.806 17.8022C301.361 17.8022 300.985 17.723 300.677 17.5644C300.37 17.4059 300.137 17.2007 299.978 16.9489C299.819 16.6972 299.74 16.4314 299.74 16.1516H300.607C300.62 16.3879 300.688 16.5759 300.813 16.7158C300.937 16.8526 301.089 16.9505 301.27 17.0096C301.45 17.0655 301.629 17.0935 301.806 17.0935C302.042 17.0935 302.239 17.0624 302.398 17.0002C302.56 16.9381 302.682 16.8526 302.766 16.7438C302.85 16.635 302.892 16.5106 302.892 16.3708Z" fill="#606770"/>
<path d="M313.578 15.8718C313.578 16.2853 313.482 16.6365 313.289 16.9256C313.1 17.2116 312.842 17.4292 312.515 17.5784C312.192 17.7276 311.827 17.8022 311.419 17.8022C311.012 17.8022 310.645 17.7276 310.319 17.5784C309.993 17.4292 309.735 17.2116 309.545 16.9256C309.355 16.6365 309.261 16.2853 309.261 15.8718C309.261 15.6014 309.312 15.3543 309.414 15.1304C309.52 14.9035 309.668 14.7061 309.857 14.5383C310.05 14.3704 310.277 14.2414 310.538 14.1513C310.802 14.058 311.093 14.0114 311.41 14.0114C311.827 14.0114 312.198 14.0922 312.525 14.2538C312.851 14.4124 313.107 14.6315 313.294 14.9113C313.484 15.1911 313.578 15.5112 313.578 15.8718ZM312.711 15.8532C312.711 15.6014 312.657 15.3791 312.548 15.1864C312.439 14.9906 312.287 14.8382 312.091 14.7294C311.895 14.6206 311.668 14.5662 311.41 14.5662C311.146 14.5662 310.917 14.6206 310.725 14.7294C310.535 14.8382 310.387 14.9906 310.282 15.1864C310.176 15.3791 310.123 15.6014 310.123 15.8532C310.123 16.1143 310.174 16.3381 310.277 16.5246C310.383 16.708 310.532 16.8495 310.725 16.9489C310.921 17.0453 311.152 17.0935 311.419 17.0935C311.687 17.0935 311.917 17.0453 312.11 16.9489C312.302 16.8495 312.45 16.708 312.553 16.5246C312.658 16.3381 312.711 16.1143 312.711 15.8532ZM313.42 12.6871C313.42 13.0166 313.333 13.3135 313.159 13.5777C312.985 13.842 312.747 14.0502 312.445 14.2025C312.144 14.3549 311.802 14.431 311.419 14.431C311.031 14.431 310.684 14.3549 310.38 14.2025C310.078 14.0502 309.842 13.842 309.671 13.5777C309.5 13.3135 309.414 13.0166 309.414 12.6871C309.414 12.2923 309.5 11.9566 309.671 11.68C309.845 11.4033 310.083 11.1919 310.384 11.0458C310.686 10.8997 311.029 10.8267 311.415 10.8267C311.803 10.8267 312.148 10.8997 312.45 11.0458C312.751 11.1919 312.988 11.4033 313.159 11.68C313.333 11.9566 313.42 12.2923 313.42 12.6871ZM312.557 12.7011C312.557 12.4742 312.509 12.2737 312.413 12.0996C312.316 11.9255 312.183 11.7888 312.012 11.6893C311.841 11.5867 311.642 11.5354 311.415 11.5354C311.188 11.5354 310.989 11.5836 310.818 11.68C310.65 11.7732 310.518 11.9069 310.422 12.081C310.328 12.255 310.282 12.4618 310.282 12.7011C310.282 12.9343 310.328 13.1379 310.422 13.3119C310.518 13.486 310.652 13.6212 310.823 13.7176C310.994 13.814 311.193 13.8622 311.419 13.8622C311.646 13.8622 311.844 13.814 312.012 13.7176C312.183 13.6212 312.316 13.486 312.413 13.3119C312.509 13.1379 312.557 12.9343 312.557 12.7011ZM319.057 10.9199V11.4048L316.245 17.709H315.336L318.143 11.6287H314.469V10.9199H319.057ZM326.252 15.9931C326.252 15.8345 326.227 15.6946 326.177 15.5734C326.131 15.4491 326.047 15.3372 325.925 15.2377C325.807 15.1382 325.643 15.0434 325.431 14.9533C325.223 14.8631 324.959 14.7714 324.639 14.6782C324.303 14.5787 324 14.4683 323.729 14.3471C323.459 14.2227 323.227 14.0813 323.035 13.9228C322.842 13.7642 322.694 13.5824 322.592 13.3772C322.489 13.1721 322.438 12.9374 322.438 12.6731C322.438 12.4089 322.492 12.1649 322.601 11.9411C322.71 11.7173 322.865 11.523 323.067 11.3582C323.272 11.1904 323.516 11.0598 323.799 10.9665C324.082 10.8733 324.398 10.8267 324.746 10.8267C325.256 10.8267 325.688 10.9246 326.042 11.1204C326.4 11.3131 326.672 11.5665 326.858 11.8805C327.045 12.1913 327.138 12.5239 327.138 12.8783H326.243C326.243 12.6234 326.188 12.398 326.079 12.2022C325.971 12.0032 325.806 11.8478 325.585 11.7359C325.364 11.6209 325.085 11.5634 324.746 11.5634C324.426 11.5634 324.161 11.6116 323.953 11.7079C323.745 11.8043 323.589 11.9349 323.487 12.0996C323.387 12.2644 323.338 12.4524 323.338 12.6638C323.338 12.8068 323.367 12.9374 323.426 13.0555C323.488 13.1705 323.583 13.2777 323.711 13.3772C323.841 13.4767 324.006 13.5684 324.205 13.6523C324.407 13.7363 324.648 13.8171 324.928 13.8948C325.313 14.0036 325.646 14.1248 325.925 14.2585C326.205 14.3922 326.435 14.5429 326.616 14.7108C326.799 14.8755 326.934 15.0636 327.021 15.275C327.111 15.4833 327.156 15.7195 327.156 15.9837C327.156 16.2604 327.101 16.5106 326.989 16.7345C326.877 16.9583 326.717 17.1494 326.508 17.308C326.3 17.4665 326.05 17.5893 325.758 17.6763C325.469 17.7603 325.145 17.8022 324.788 17.8022C324.474 17.8022 324.164 17.7587 323.86 17.6717C323.558 17.5846 323.283 17.4541 323.035 17.28C322.789 17.1059 322.592 16.8914 322.442 16.6365C322.296 16.3785 322.223 16.0801 322.223 15.7413H323.118C323.118 15.9744 323.164 16.1749 323.254 16.3428C323.344 16.5075 323.467 16.6443 323.622 16.7531C323.781 16.8619 323.959 16.9427 324.158 16.9956C324.36 17.0453 324.57 17.0702 324.788 17.0702C325.102 17.0702 325.367 17.0267 325.585 16.9396C325.803 16.8526 325.967 16.7282 326.079 16.5666C326.194 16.4049 326.252 16.2138 326.252 15.9931ZM329.036 10.5469V17.709H328.173V10.5469H329.036ZM328.83 14.9952L328.471 14.9812C328.474 14.6362 328.526 14.3176 328.625 14.0254C328.725 13.73 328.865 13.4736 329.045 13.256C329.225 13.0384 329.44 12.8705 329.688 12.7524C329.94 12.6312 330.218 12.5706 330.523 12.5706C330.772 12.5706 330.996 12.6047 331.194 12.6731C331.393 12.7384 331.563 12.8441 331.703 12.9902C331.846 13.1363 331.955 13.3259 332.029 13.5591C332.104 13.7891 332.141 14.0704 332.141 14.403V17.709H331.274V14.3937C331.274 14.1295 331.235 13.9181 331.157 13.7596C331.079 13.5979 330.966 13.4814 330.817 13.4099C330.668 13.3353 330.484 13.298 330.267 13.298C330.052 13.298 329.856 13.343 329.679 13.4332C329.505 13.5233 329.354 13.6477 329.227 13.8062C329.102 13.9647 329.004 14.1466 328.933 14.3518C328.865 14.5538 328.83 14.7683 328.83 14.9952ZM336.407 16.8464V14.2492C336.407 14.0502 336.367 13.8777 336.286 13.7316C336.209 13.5824 336.09 13.4674 335.932 13.3865C335.773 13.3057 335.578 13.2653 335.344 13.2653C335.127 13.2653 334.936 13.3026 334.771 13.3772C334.609 13.4518 334.482 13.5497 334.388 13.671C334.298 13.7922 334.253 13.9228 334.253 14.0627H333.391C333.391 13.8824 333.437 13.7036 333.531 13.5264C333.624 13.3492 333.757 13.1892 333.932 13.0462C334.109 12.9001 334.32 12.785 334.566 12.7011C334.814 12.6141 335.091 12.5706 335.396 12.5706C335.762 12.5706 336.086 12.6327 336.366 12.7571C336.648 12.8814 336.869 13.0695 337.028 13.3213C337.189 13.57 337.27 13.8824 337.27 14.2585V16.6086C337.27 16.7764 337.284 16.9552 337.312 17.1448C337.343 17.3344 337.388 17.4976 337.447 17.6344V17.709H336.547C336.504 17.6095 336.47 17.4774 336.445 17.3126C336.42 17.1448 336.407 16.9894 336.407 16.8464ZM336.557 14.6502L336.566 15.2563H335.694C335.449 15.2563 335.229 15.2765 335.037 15.317C334.844 15.3543 334.682 15.4118 334.552 15.4895C334.421 15.5672 334.322 15.6651 334.253 15.7832C334.185 15.8983 334.151 16.0335 334.151 16.1889C334.151 16.3474 334.186 16.492 334.258 16.6225C334.329 16.7531 334.437 16.8572 334.58 16.935C334.726 17.0096 334.905 17.0469 335.116 17.0469C335.38 17.0469 335.613 16.9909 335.815 16.879C336.017 16.7671 336.177 16.6303 336.296 16.4687C336.417 16.307 336.482 16.15 336.491 15.9977L336.86 16.4127C336.838 16.5433 336.779 16.6878 336.683 16.8464C336.586 17.0049 336.457 17.1572 336.296 17.3033C336.137 17.4463 335.947 17.566 335.727 17.6624C335.509 17.7556 335.264 17.8022 334.99 17.8022C334.648 17.8022 334.348 17.7354 334.09 17.6017C333.835 17.4681 333.636 17.2893 333.493 17.0655C333.353 16.8386 333.283 16.5852 333.283 16.3055C333.283 16.035 333.336 15.7972 333.442 15.5921C333.548 15.3838 333.7 15.2113 333.899 15.0745C334.098 14.9346 334.337 14.8289 334.617 14.7574C334.897 14.6859 335.209 14.6502 335.554 14.6502H336.557ZM339.49 13.4565V17.709H338.627V12.6638H339.466L339.49 13.4565ZM341.066 12.6358L341.061 13.4378C340.989 13.4223 340.921 13.413 340.856 13.4099C340.794 13.4036 340.722 13.4005 340.641 13.4005C340.442 13.4005 340.267 13.4316 340.114 13.4938C339.962 13.556 339.833 13.643 339.727 13.7549C339.622 13.8668 339.538 14.0005 339.476 14.1559C339.417 14.3082 339.378 14.4761 339.359 14.6595L339.117 14.7994C339.117 14.4947 339.146 14.2088 339.205 13.9414C339.267 13.6741 339.362 13.4378 339.49 13.2327C339.617 13.0244 339.779 12.8628 339.975 12.7477C340.174 12.6296 340.41 12.5706 340.683 12.5706C340.745 12.5706 340.817 12.5783 340.898 12.5939C340.979 12.6063 341.035 12.6203 341.066 12.6358ZM343.863 17.8022C343.512 17.8022 343.193 17.7432 342.907 17.6251C342.625 17.5038 342.381 17.3344 342.175 17.1168C341.973 16.8992 341.818 16.6412 341.709 16.3428C341.6 16.0444 341.546 15.718 341.546 15.3636V15.1677C341.546 14.7574 341.607 14.3922 341.728 14.072C341.849 13.7487 342.014 13.4751 342.222 13.2513C342.43 13.0275 342.667 12.8581 342.931 12.7431C343.195 12.6281 343.469 12.5706 343.751 12.5706C344.112 12.5706 344.423 12.6327 344.684 12.7571C344.948 12.8814 345.164 13.0555 345.332 13.2793C345.5 13.5 345.624 13.7611 345.705 14.0627C345.786 14.3611 345.826 14.6875 345.826 15.0419V15.4289H342.059V14.7248H344.964V14.6595C344.951 14.4357 344.905 14.2181 344.824 14.0067C344.746 13.7953 344.622 13.6212 344.451 13.4845C344.28 13.3477 344.047 13.2793 343.751 13.2793C343.556 13.2793 343.375 13.3213 343.211 13.4052C343.046 13.486 342.904 13.6073 342.786 13.7689C342.668 13.9305 342.576 14.1279 342.511 14.3611C342.446 14.5942 342.413 14.8631 342.413 15.1677V15.3636C342.413 15.6029 342.446 15.8283 342.511 16.0397C342.58 16.248 342.677 16.4314 342.805 16.5899C342.935 16.7484 343.092 16.8728 343.276 16.9629C343.462 17.0531 343.674 17.0982 343.91 17.0982C344.215 17.0982 344.473 17.036 344.684 16.9116C344.895 16.7873 345.08 16.621 345.239 16.4127L345.761 16.8277C345.652 16.9925 345.514 17.1494 345.346 17.2987C345.178 17.4479 344.972 17.5691 344.726 17.6624C344.484 17.7556 344.196 17.8022 343.863 17.8022ZM349.771 16.3708C349.771 16.2464 349.743 16.1314 349.687 16.0257C349.634 15.9169 349.524 15.819 349.356 15.7319C349.191 15.6418 348.943 15.5641 348.61 15.4988C348.33 15.4397 348.077 15.3698 347.85 15.289C347.626 15.2082 347.435 15.1102 347.277 14.9952C347.121 14.8802 347.001 14.745 346.917 14.5896C346.834 14.4341 346.792 14.2523 346.792 14.044C346.792 13.8451 346.835 13.657 346.922 13.4798C347.012 13.3026 347.138 13.1456 347.3 13.0089C347.465 12.8721 347.662 12.7648 347.892 12.6871C348.122 12.6094 348.379 12.5706 348.661 12.5706C349.066 12.5706 349.411 12.6421 349.697 12.785C349.983 12.928 350.202 13.1192 350.354 13.3586C350.506 13.5948 350.582 13.8575 350.582 14.1466H349.72C349.72 14.0067 349.678 13.8715 349.594 13.7409C349.513 13.6073 349.393 13.4969 349.235 13.4099C349.079 13.3228 348.888 13.2793 348.661 13.2793C348.422 13.2793 348.228 13.3166 348.079 13.3912C347.932 13.4627 347.825 13.5544 347.757 13.6663C347.692 13.7782 347.659 13.8964 347.659 14.0207C347.659 14.1139 347.674 14.1979 347.706 14.2725C347.74 14.344 347.799 14.4108 347.883 14.473C347.967 14.532 348.085 14.588 348.237 14.6408C348.389 14.6937 348.584 14.7465 348.82 14.7994C349.233 14.8926 349.574 15.0045 349.841 15.1351C350.108 15.2657 350.307 15.4258 350.438 15.6154C350.568 15.805 350.634 16.035 350.634 16.3055C350.634 16.5262 350.587 16.7282 350.494 16.9116C350.404 17.095 350.272 17.2536 350.098 17.3872C349.927 17.5178 349.721 17.6204 349.482 17.695C349.246 17.7665 348.98 17.8022 348.685 17.8022C348.24 17.8022 347.864 17.723 347.556 17.5644C347.249 17.4059 347.015 17.2007 346.857 16.9489C346.698 16.6972 346.619 16.4314 346.619 16.1516H347.486C347.499 16.3879 347.567 16.5759 347.692 16.7158C347.816 16.8526 347.968 16.9505 348.148 17.0096C348.329 17.0655 348.508 17.0935 348.685 17.0935C348.921 17.0935 349.118 17.0624 349.277 17.0002C349.439 16.9381 349.561 16.8526 349.645 16.7438C349.729 16.635 349.771 16.5106 349.771 16.3708Z" fill="#606770"/>
</g>
</g>
<rect x="9.25195" y="28.5312" width="340.498" height="0.596841" fill="#DADDE1"/>
<g clip-path="url(#clip7_1494_59465)">
<g clip-path="url(#clip8_1494_59465)">
<g clip-path="url(#clip9_1494_59465)">
<path d="M130.565 44.9329C130.614 45.2266 130.638 45.5204 130.589 45.8141C130.54 46.1324 130.467 46.4017 130.32 46.622C130.369 46.9157 130.345 47.2095 130.271 47.5032C130.173 47.797 130.051 48.0663 129.879 48.2621C129.879 48.9476 129.708 49.4861 129.316 49.8778C128.925 50.2695 128.362 50.4653 127.652 50.4653H126.648C126.159 50.4653 125.62 50.3919 125.032 50.245C124.69 50.1715 124.2 50.0247 123.613 49.8044L122.878 49.5596C122.633 49.5106 122.462 49.4616 122.315 49.4616V49.682C122.315 49.9023 122.217 50.0981 122.07 50.245C121.924 50.3919 121.728 50.4653 121.532 50.4653H119.182C118.961 50.4653 118.766 50.3919 118.619 50.245C118.472 50.0981 118.398 49.9023 118.398 49.682V43.4151C118.398 43.2193 118.472 43.0234 118.619 42.8766C118.766 42.7297 118.961 42.6318 119.182 42.6318H121.532C121.801 42.6318 122.021 42.7542 122.168 42.9745C122.242 42.9745 122.315 42.95 122.364 42.9255C122.511 42.8521 122.682 42.6807 122.927 42.4114C123.074 42.2646 123.294 41.9953 123.588 41.6036C123.931 41.114 124.2 40.7958 124.372 40.6489C124.469 40.551 124.543 40.4041 124.616 40.1838C124.665 40.0614 124.714 39.8655 124.763 39.5718C124.959 38.4947 125.351 37.9316 125.914 37.9316C126.599 37.9316 127.113 38.1275 127.456 38.5192C127.774 38.9108 127.946 39.4739 127.946 40.2083C127.946 40.5265 127.897 40.8447 127.799 41.1385C127.725 41.3343 127.627 41.5547 127.48 41.8484L127.431 41.9219H129.145C129.635 41.9219 130.051 42.1177 130.394 42.4604C130.736 42.8276 130.932 43.2438 130.932 43.7334C130.932 44.223 130.81 44.6146 130.565 44.9329ZM119.182 49.682H121.532V43.4151H119.182V49.682ZM129.561 44.6881C129.757 44.6391 129.904 44.5412 130.002 44.3454C130.1 44.174 130.149 43.9537 130.149 43.7089C130.149 43.4641 130.051 43.2193 129.855 43.0234C129.659 42.8276 129.414 42.7052 129.145 42.7052H126.403C126.403 42.4849 126.428 42.2646 126.526 42.0442C126.575 41.9219 126.648 41.726 126.771 41.4812C126.893 41.2364 126.991 41.0406 127.04 40.8937C127.113 40.6734 127.162 40.4531 127.162 40.2083C127.162 39.7676 127.089 39.4249 126.991 39.2291C126.795 38.8864 126.452 38.715 125.914 38.715C125.816 38.8129 125.718 38.9598 125.669 39.1556C125.62 39.278 125.571 39.4739 125.522 39.7187C125.449 40.0859 125.4 40.3551 125.351 40.502C125.228 40.7958 125.081 41.0406 124.91 41.2119C124.739 41.3833 124.469 41.7015 124.127 42.1666C123.735 42.6807 123.441 43.0234 123.245 43.2193C122.903 43.562 122.584 43.7089 122.315 43.7089V48.6783C122.511 48.6783 122.756 48.7272 123.05 48.8007C123.221 48.8496 123.515 48.9476 123.931 49.0944C124.469 49.2903 124.91 49.4127 125.204 49.4861C125.718 49.633 126.207 49.682 126.648 49.682H127.652C128.141 49.682 128.533 49.5596 128.778 49.2903C129.047 48.9965 129.145 48.5559 129.047 47.9439C129.267 47.846 129.414 47.6256 129.512 47.3074C129.61 46.9892 129.561 46.6954 129.414 46.4261C129.586 46.3527 129.708 46.1813 129.782 45.9365C129.831 45.6917 129.855 45.4469 129.806 45.2021C129.757 44.9573 129.684 44.786 129.561 44.6881ZM120.944 48.5069C120.944 48.36 120.871 48.2132 120.773 48.0908C120.651 47.9928 120.504 47.9194 120.357 47.9194C120.185 47.9194 120.039 47.9928 119.941 48.0908C119.818 48.2132 119.769 48.36 119.769 48.5069C119.769 48.6783 119.818 48.8252 119.941 48.9231C120.039 49.0455 120.185 49.0944 120.357 49.0944C120.504 49.0944 120.651 49.0455 120.773 48.9231C120.871 48.8252 120.944 48.6783 120.944 48.5069Z" fill="#606770"/>
<path d="M139.755 46.7655V47.6934H136.347V46.7655H139.755ZM136.673 40.9043V47.6934H135.503V40.9043H136.673ZM141.751 42.6482V47.6934H140.622V42.6482H141.751ZM140.548 41.3239C140.548 41.153 140.604 41.0115 140.716 40.8996C140.831 40.7846 140.989 40.7271 141.191 40.7271C141.39 40.7271 141.547 40.7846 141.662 40.8996C141.777 41.0115 141.835 41.153 141.835 41.3239C141.835 41.4918 141.777 41.6317 141.662 41.7436C141.547 41.8555 141.39 41.9115 141.191 41.9115C140.989 41.9115 140.831 41.8555 140.716 41.7436C140.604 41.6317 140.548 41.4918 140.548 41.3239ZM144.115 40.5313V47.6934H142.986V40.5313H144.115ZM147.248 42.6482L145.052 45.0822L143.849 46.3132L143.555 45.3619L144.465 44.2382L145.891 42.6482H147.248ZM146.134 47.6934L144.497 45.3246L145.206 44.5366L147.435 47.6934H146.134ZM150.093 47.7866C149.72 47.7866 149.382 47.726 149.081 47.6048C148.782 47.4804 148.527 47.3079 148.316 47.0872C148.108 46.8665 147.948 46.6069 147.836 46.3085C147.724 46.0101 147.668 45.6883 147.668 45.3433V45.1568C147.668 44.762 147.725 44.4045 147.84 44.0843C147.955 43.7642 148.116 43.4906 148.321 43.2637C148.526 43.0336 148.768 42.858 149.048 42.7368C149.328 42.6155 149.631 42.5549 149.957 42.5549C150.318 42.5549 150.633 42.6155 150.904 42.7368C151.174 42.858 151.398 43.029 151.575 43.2497C151.756 43.4673 151.889 43.7269 151.976 44.0284C152.066 44.3299 152.112 44.6625 152.112 45.0262V45.5065H148.213V44.6998H151.002V44.6112C150.996 44.4092 150.955 44.2196 150.881 44.0424C150.809 43.8652 150.699 43.7222 150.55 43.6134C150.4 43.5046 150.201 43.4502 149.953 43.4502C149.766 43.4502 149.6 43.4906 149.454 43.5714C149.311 43.6491 149.191 43.7626 149.095 43.9118C148.998 44.061 148.924 44.2413 148.871 44.4527C148.821 44.661 148.796 44.8957 148.796 45.1568V45.3433C148.796 45.564 148.826 45.7692 148.885 45.9588C148.947 46.1453 149.037 46.3085 149.155 46.4484C149.273 46.5883 149.416 46.6986 149.584 46.7794C149.752 46.8572 149.943 46.896 150.158 46.896C150.428 46.896 150.669 46.8416 150.881 46.7328C151.092 46.624 151.275 46.4701 151.431 46.2712L152.023 46.8447C151.914 47.0033 151.773 47.1556 151.599 47.3017C151.425 47.4447 151.212 47.5612 150.96 47.6514C150.711 47.7415 150.422 47.7866 150.093 47.7866Z" fill="#606770"/>
</g>
<g clip-path="url(#clip10_1494_59465)">
<path d="M210.834 37.9316C211.25 37.9316 211.617 38.103 211.936 38.3968C212.229 38.715 212.401 39.0822 212.401 39.4983V46.5485C212.401 46.9892 212.229 47.3564 211.936 47.6501C211.617 47.9684 211.25 48.1152 210.834 48.1152H207.309L204.249 50.4163C204.2 50.4653 204.127 50.4653 204.053 50.4653C203.98 50.4653 203.906 50.4408 203.857 50.3919C203.808 50.3429 203.784 50.2695 203.784 50.1715V48.1152H201.434C200.993 48.1152 200.626 47.9684 200.332 47.6501C200.014 47.3564 199.867 46.9892 199.867 46.5485V39.4983C199.867 39.0822 200.014 38.715 200.332 38.3968C200.626 38.103 200.993 37.9316 201.434 37.9316H210.834ZM211.617 46.5485V39.4983C211.617 39.3025 211.52 39.1067 211.373 38.9598C211.226 38.8129 211.03 38.715 210.834 38.715H201.434C201.214 38.715 201.018 38.8129 200.871 38.9598C200.724 39.1067 200.651 39.3025 200.651 39.4983V46.5485C200.651 46.7689 200.724 46.9647 200.871 47.1116C201.018 47.2585 201.214 47.3319 201.434 47.3319H204.567V49.1924L207.04 47.3319H210.834C211.03 47.3319 211.226 47.2585 211.373 47.1116C211.52 46.9647 211.617 46.7689 211.617 46.5485Z" fill="#606770"/>
<path d="M221.577 45.4832H222.743C222.705 45.9277 222.581 46.324 222.37 46.6722C222.158 47.0173 221.862 47.2892 221.479 47.4882C221.097 47.6871 220.632 47.7866 220.085 47.7866C219.665 47.7866 219.288 47.712 218.952 47.5628C218.616 47.4105 218.329 47.196 218.089 46.9193C217.85 46.6396 217.667 46.3023 217.539 45.9075C217.415 45.5127 217.353 45.0713 217.353 44.5833V44.0191C217.353 43.531 217.416 43.0896 217.544 42.6948C217.674 42.3 217.861 41.9628 218.103 41.683C218.346 41.4001 218.636 41.1841 218.975 41.0348C219.317 40.8856 219.701 40.811 220.127 40.811C220.668 40.811 221.125 40.9105 221.498 41.1095C221.871 41.3084 222.16 41.5835 222.365 41.9348C222.573 42.286 222.701 42.6886 222.747 43.1424H221.582C221.551 42.8502 221.482 42.6 221.377 42.3917C221.274 42.1835 221.122 42.0249 220.92 41.9161C220.718 41.8042 220.453 41.7483 220.127 41.7483C219.86 41.7483 219.626 41.798 219.428 41.8975C219.229 41.9969 219.062 42.143 218.929 42.3358C218.795 42.5285 218.694 42.7663 218.626 43.0492C218.56 43.329 218.528 43.6491 218.528 44.0097V44.5833C218.528 44.9252 218.557 45.2361 218.616 45.5158C218.678 45.7925 218.772 46.0303 218.896 46.2292C219.023 46.4282 219.185 46.5821 219.381 46.6909C219.577 46.7997 219.811 46.8541 220.085 46.8541C220.418 46.8541 220.686 46.8012 220.892 46.6955C221.1 46.5898 221.257 46.436 221.363 46.2339C221.471 46.0287 221.543 45.7785 221.577 45.4832ZM223.48 45.2267V45.1195C223.48 44.7558 223.532 44.4185 223.638 44.1076C223.744 43.7937 223.896 43.5217 224.095 43.2917C224.297 43.0585 224.543 42.8782 224.832 42.7508C225.124 42.6202 225.453 42.5549 225.82 42.5549C226.19 42.5549 226.52 42.6202 226.809 42.7508C227.101 42.8782 227.348 43.0585 227.55 43.2917C227.752 43.5217 227.906 43.7937 228.012 44.1076C228.117 44.4185 228.17 44.7558 228.17 45.1195V45.2267C228.17 45.5904 228.117 45.9277 228.012 46.2386C227.906 46.5494 227.752 46.8214 227.55 47.0546C227.348 47.2846 227.103 47.4649 226.813 47.5954C226.524 47.7229 226.196 47.7866 225.83 47.7866C225.46 47.7866 225.129 47.7229 224.836 47.5954C224.547 47.4649 224.302 47.2846 224.1 47.0546C223.898 46.8214 223.744 46.5494 223.638 46.2386C223.532 45.9277 223.48 45.5904 223.48 45.2267ZM224.603 45.1195V45.2267C224.603 45.4537 224.627 45.6681 224.673 45.8702C224.72 46.0723 224.793 46.2494 224.892 46.4018C224.992 46.5541 225.119 46.6738 225.275 46.7608C225.43 46.8478 225.615 46.8914 225.83 46.8914C226.038 46.8914 226.218 46.8478 226.37 46.7608C226.526 46.6738 226.653 46.5541 226.753 46.4018C226.852 46.2494 226.925 46.0723 226.972 45.8702C227.022 45.6681 227.047 45.4537 227.047 45.2267V45.1195C227.047 44.8957 227.022 44.6843 226.972 44.4853C226.925 44.2833 226.851 44.1045 226.748 43.9491C226.649 43.7937 226.521 43.6725 226.366 43.5854C226.213 43.4953 226.032 43.4502 225.82 43.4502C225.609 43.4502 225.425 43.4953 225.27 43.5854C225.118 43.6725 224.992 43.7937 224.892 43.9491C224.793 44.1045 224.72 44.2833 224.673 44.4853C224.627 44.6843 224.603 44.8957 224.603 45.1195ZM230.236 43.674V47.6934H229.112V42.6482H230.171L230.236 43.674ZM230.054 44.9843L229.672 44.9796C229.672 44.6314 229.715 44.3097 229.802 44.0144C229.889 43.7191 230.017 43.4626 230.185 43.245C230.353 43.0243 230.561 42.8549 230.809 42.7368C231.061 42.6155 231.352 42.5549 231.681 42.5549C231.911 42.5549 232.121 42.5891 232.311 42.6575C232.504 42.7228 232.67 42.8269 232.81 42.9699C232.953 43.1129 233.062 43.2963 233.136 43.5201C233.214 43.7439 233.253 44.0144 233.253 44.3315V47.6934H232.129V44.4294C232.129 44.1838 232.092 43.9911 232.017 43.8512C231.946 43.7113 231.842 43.6118 231.705 43.5528C231.571 43.4906 231.411 43.4595 231.224 43.4595C231.013 43.4595 230.833 43.4999 230.684 43.5808C230.537 43.6616 230.418 43.7719 230.325 43.9118C230.231 44.0517 230.163 44.2133 230.119 44.3967C230.076 44.5801 230.054 44.776 230.054 44.9843ZM233.183 44.6858L232.656 44.8024C232.656 44.4978 232.698 44.2102 232.782 43.9398C232.869 43.6662 232.995 43.4269 233.16 43.2217C233.327 43.0134 233.534 42.8502 233.78 42.7321C234.025 42.614 234.307 42.5549 234.624 42.5549C234.882 42.5549 235.112 42.5907 235.314 42.6622C235.519 42.7306 235.693 42.8394 235.836 42.9886C235.979 43.1378 236.088 43.3321 236.162 43.5714C236.237 43.8077 236.274 44.0937 236.274 44.4294V47.6934H235.146V44.4247C235.146 44.1698 235.109 43.9724 235.034 43.8325C234.962 43.6927 234.86 43.5963 234.726 43.5434C234.593 43.4875 234.432 43.4595 234.246 43.4595C234.072 43.4595 233.918 43.4922 233.784 43.5574C233.654 43.6196 233.543 43.7082 233.453 43.8232C233.363 43.9351 233.295 44.0641 233.248 44.2102C233.205 44.3563 233.183 44.5149 233.183 44.6858ZM238.554 43.674V47.6934H237.431V42.6482H238.489L238.554 43.674ZM238.373 44.9843L237.99 44.9796C237.99 44.6314 238.034 44.3097 238.121 44.0144C238.208 43.7191 238.335 43.4626 238.503 43.245C238.671 43.0243 238.879 42.8549 239.128 42.7368C239.38 42.6155 239.67 42.5549 240 42.5549C240.23 42.5549 240.44 42.5891 240.629 42.6575C240.822 42.7228 240.988 42.8269 241.128 42.9699C241.271 43.1129 241.38 43.2963 241.455 43.5201C241.532 43.7439 241.571 44.0144 241.571 44.3315V47.6934H240.448V44.4294C240.448 44.1838 240.41 43.9911 240.336 43.8512C240.264 43.7113 240.16 43.6118 240.023 43.5528C239.89 43.4906 239.729 43.4595 239.543 43.4595C239.332 43.4595 239.151 43.4999 239.002 43.5808C238.856 43.6616 238.736 43.7719 238.643 43.9118C238.55 44.0517 238.481 44.2133 238.438 44.3967C238.394 44.5801 238.373 44.776 238.373 44.9843ZM241.501 44.6858L240.974 44.8024C240.974 44.4978 241.016 44.2102 241.1 43.9398C241.187 43.6662 241.313 43.4269 241.478 43.2217C241.646 43.0134 241.853 42.8502 242.098 42.7321C242.344 42.614 242.625 42.5549 242.942 42.5549C243.2 42.5549 243.43 42.5907 243.632 42.6622C243.837 42.7306 244.011 42.8394 244.154 42.9886C244.297 43.1378 244.406 43.3321 244.481 43.5714C244.555 43.8077 244.593 44.0937 244.593 44.4294V47.6934H243.464V44.4247C243.464 44.1698 243.427 43.9724 243.352 43.8325C243.281 43.6927 243.178 43.5963 243.045 43.5434C242.911 43.4875 242.751 43.4595 242.564 43.4595C242.39 43.4595 242.236 43.4922 242.103 43.5574C241.972 43.6196 241.862 43.7082 241.772 43.8232C241.682 43.9351 241.613 44.0641 241.567 44.2102C241.523 44.3563 241.501 44.5149 241.501 44.6858ZM247.973 47.7866C247.6 47.7866 247.263 47.726 246.961 47.6048C246.663 47.4804 246.408 47.3079 246.197 47.0872C245.989 46.8665 245.828 46.6069 245.717 46.3085C245.605 46.0101 245.549 45.6883 245.549 45.3433V45.1568C245.549 44.762 245.606 44.4045 245.721 44.0843C245.836 43.7642 245.996 43.4906 246.201 43.2637C246.407 43.0336 246.649 42.858 246.929 42.7368C247.209 42.6155 247.512 42.5549 247.838 42.5549C248.199 42.5549 248.514 42.6155 248.785 42.7368C249.055 42.858 249.279 43.029 249.456 43.2497C249.636 43.4673 249.77 43.7269 249.857 44.0284C249.947 44.3299 249.992 44.6625 249.992 45.0262V45.5065H246.094V44.6998H248.883V44.6112C248.876 44.4092 248.836 44.2196 248.761 44.0424C248.69 43.8652 248.579 43.7222 248.43 43.6134C248.281 43.5046 248.082 43.4502 247.833 43.4502C247.647 43.4502 247.481 43.4906 247.335 43.5714C247.192 43.6491 247.072 43.7626 246.975 43.9118C246.879 44.061 246.804 44.2413 246.752 44.4527C246.702 44.661 246.677 44.8957 246.677 45.1568V45.3433C246.677 45.564 246.707 45.7692 246.766 45.9588C246.828 46.1453 246.918 46.3085 247.036 46.4484C247.154 46.5883 247.297 46.6986 247.465 46.7794C247.633 46.8572 247.824 46.896 248.039 46.896C248.309 46.896 248.55 46.8416 248.761 46.7328C248.973 46.624 249.156 46.4701 249.312 46.2712L249.904 46.8447C249.795 47.0033 249.653 47.1556 249.479 47.3017C249.305 47.4447 249.092 47.5612 248.841 47.6514C248.592 47.7415 248.303 47.7866 247.973 47.7866ZM251.983 43.7253V47.6934H250.86V42.6482H251.918L251.983 43.7253ZM251.783 44.9843L251.419 44.9796C251.422 44.6221 251.472 44.2942 251.568 43.9957C251.668 43.6973 251.805 43.4409 251.979 43.2264C252.156 43.0119 252.367 42.8471 252.613 42.7321C252.858 42.614 253.132 42.5549 253.433 42.5549C253.676 42.5549 253.895 42.5891 254.091 42.6575C254.29 42.7228 254.459 42.83 254.599 42.9792C254.742 43.1285 254.851 43.3227 254.926 43.5621C255 43.7983 255.037 44.089 255.037 44.434V47.6934H253.909V44.4294C253.909 44.1869 253.873 43.9957 253.802 43.8559C253.733 43.7129 253.632 43.6118 253.499 43.5528C253.368 43.4906 253.205 43.4595 253.009 43.4595C252.816 43.4595 252.644 43.4999 252.492 43.5808C252.339 43.6616 252.21 43.7719 252.105 43.9118C252.002 44.0517 251.923 44.2133 251.867 44.3967C251.811 44.5801 251.783 44.776 251.783 44.9843ZM258.497 42.6482V43.4688H255.653V42.6482H258.497ZM256.474 41.4125H257.597V46.2992C257.597 46.4546 257.619 46.5743 257.663 46.6582C257.709 46.739 257.773 46.7934 257.854 46.8214C257.935 46.8494 258.029 46.8634 258.138 46.8634C258.216 46.8634 258.291 46.8587 258.362 46.8494C258.434 46.8401 258.491 46.8307 258.535 46.8214L258.539 47.6794C258.446 47.7073 258.337 47.7322 258.213 47.754C258.092 47.7757 257.952 47.7866 257.793 47.7866C257.535 47.7866 257.307 47.7415 257.108 47.6514C256.909 47.5581 256.753 47.4074 256.642 47.1991C256.53 46.9908 256.474 46.7142 256.474 46.3691V41.4125Z" fill="#606770"/>
</g>
<g clip-path="url(#clip11_1494_59465)">
<path d="M319.937 42.7297C320.108 42.9255 320.206 43.1703 320.206 43.4151C320.206 43.6844 320.108 43.9047 319.937 44.1006L315.628 48.6048C315.432 48.8007 315.187 48.8986 314.918 48.8986C314.649 48.8986 314.429 48.8252 314.233 48.6293C314.037 48.4335 313.939 48.2132 313.939 47.9194V45.7652C312.519 45.7897 311.516 45.8631 310.904 46.01C310.12 46.2058 309.606 46.573 309.386 47.0871C309.141 47.6256 309.19 48.409 309.508 49.4616C309.557 49.7064 309.533 49.9023 309.41 50.0981C309.288 50.2939 309.116 50.3919 308.896 50.4408C308.676 50.4898 308.48 50.4653 308.284 50.3184C307.697 49.9023 307.232 49.4127 306.889 48.8252C306.35 47.9928 306.105 47.0626 306.105 46.0345C306.105 44.7125 306.473 43.6844 307.232 42.901C307.868 42.2401 308.847 41.7505 310.12 41.4567C311.099 41.2119 312.372 41.0895 313.939 41.0651V38.9108C313.939 38.6416 314.037 38.4212 314.233 38.2254C314.429 38.0296 314.649 37.9316 314.918 37.9316C315.187 37.9316 315.432 38.0296 315.628 38.2254L319.937 42.7297ZM319.374 43.562C319.398 43.513 319.422 43.4641 319.422 43.4151C319.422 43.3662 319.398 43.3172 319.374 43.2682L315.065 38.764C314.992 38.715 314.918 38.715 314.845 38.7395C314.747 38.7884 314.722 38.8374 314.722 38.9108V41.8484C313.107 41.8484 311.858 41.9219 310.977 42.0687C309.704 42.2646 308.725 42.6562 308.064 43.2193C307.28 43.8802 306.889 44.8105 306.889 46.0345C306.889 46.8668 307.085 47.6256 307.501 48.2866C307.795 48.8252 308.211 49.2903 308.749 49.682C308.358 48.2621 308.358 47.2095 308.798 46.4751C309.19 45.8386 309.924 45.4225 311.026 45.2021C311.809 45.0553 313.033 44.9818 314.722 44.9818V47.9194C314.722 48.0173 314.747 48.0663 314.845 48.0908C314.918 48.1397 314.992 48.1152 315.065 48.0663L319.374 43.562Z" fill="#606770"/>
<path d="M328.943 45.9448C328.943 45.8049 328.922 45.6806 328.878 45.5718C328.838 45.463 328.765 45.3635 328.659 45.2734C328.553 45.1832 328.404 45.0962 328.211 45.0122C328.022 44.9252 327.779 44.8366 327.484 44.7465C327.161 44.647 326.862 44.5366 326.589 44.4154C326.318 44.2911 326.082 44.1481 325.88 43.9864C325.678 43.8217 325.521 43.6336 325.409 43.4222C325.297 43.2077 325.241 42.9606 325.241 42.6808C325.241 42.4042 325.299 42.1524 325.414 41.9254C325.532 41.6985 325.698 41.5027 325.913 41.3379C326.13 41.1701 326.387 41.0411 326.682 40.9509C326.977 40.8577 327.304 40.811 327.661 40.811C328.165 40.811 328.598 40.9043 328.962 41.0908C329.329 41.2773 329.61 41.5276 329.806 41.8415C330.005 42.1555 330.105 42.5021 330.105 42.8813H328.943C328.943 42.6575 328.895 42.4601 328.799 42.2891C328.706 42.1151 328.563 41.9783 328.37 41.8788C328.18 41.7793 327.939 41.7296 327.647 41.7296C327.371 41.7296 327.141 41.7716 326.957 41.8555C326.774 41.9394 326.637 42.0529 326.547 42.1959C326.457 42.3389 326.412 42.5005 326.412 42.6808C326.412 42.8083 326.441 42.9248 326.5 43.0305C326.559 43.1331 326.649 43.2295 326.771 43.3196C326.892 43.4067 327.044 43.489 327.228 43.5668C327.411 43.6445 327.627 43.7191 327.876 43.7906C328.252 43.9025 328.58 44.0268 328.86 44.1636C329.139 44.2973 329.372 44.4496 329.559 44.6206C329.745 44.7915 329.885 44.9858 329.979 45.2034C330.072 45.4179 330.118 45.6619 330.118 45.9355C330.118 46.2215 330.061 46.4795 329.946 46.7095C329.831 46.9364 329.666 47.1307 329.452 47.2924C329.24 47.4509 328.985 47.5737 328.687 47.6607C328.392 47.7447 328.062 47.7866 327.698 47.7866C327.372 47.7866 327.05 47.7431 326.733 47.6561C326.419 47.569 326.133 47.4369 325.875 47.2597C325.617 47.0794 325.412 46.8556 325.26 46.5883C325.108 46.3178 325.031 46.0023 325.031 45.6417H326.202C326.202 45.8624 326.239 46.0505 326.314 46.2059C326.391 46.3613 326.499 46.4888 326.635 46.5883C326.772 46.6846 326.931 46.7561 327.111 46.8028C327.294 46.8494 327.49 46.8727 327.698 46.8727C327.972 46.8727 328.201 46.8338 328.384 46.7561C328.57 46.6784 328.71 46.5696 328.804 46.4297C328.897 46.2898 328.943 46.1282 328.943 45.9448ZM332.151 40.5313V47.6934H331.032V40.5313H332.151ZM331.956 44.9843L331.592 44.9796C331.595 44.6314 331.643 44.3097 331.736 44.0144C331.833 43.7191 331.967 43.4626 332.137 43.245C332.312 43.0243 332.52 42.8549 332.762 42.7368C333.005 42.6155 333.274 42.5549 333.569 42.5549C333.818 42.5549 334.041 42.5891 334.24 42.6575C334.442 42.7259 334.617 42.8363 334.763 42.9886C334.909 43.1378 335.019 43.3336 335.094 43.5761C335.171 43.8154 335.21 44.1076 335.21 44.4527V47.6934H334.082V44.4434C334.082 44.2009 334.046 44.0082 333.975 43.8652C333.906 43.7222 333.805 43.6196 333.672 43.5574C333.538 43.4922 333.375 43.4595 333.182 43.4595C332.98 43.4595 332.801 43.4999 332.646 43.5808C332.493 43.6616 332.366 43.7719 332.263 43.9118C332.161 44.0517 332.083 44.2133 332.03 44.3967C331.981 44.5801 331.956 44.776 331.956 44.9843ZM339.192 46.6815V44.2755C339.192 44.0952 339.16 43.9398 339.094 43.8092C339.029 43.6787 338.93 43.5776 338.796 43.5061C338.665 43.4346 338.501 43.3989 338.302 43.3989C338.118 43.3989 337.96 43.43 337.826 43.4922C337.692 43.5543 337.588 43.6383 337.514 43.7439C337.439 43.8496 337.402 43.9693 337.402 44.103H336.283C336.283 43.904 336.331 43.7113 336.427 43.5248C336.524 43.3383 336.664 43.172 336.847 43.0259C337.03 42.8798 337.25 42.7648 337.504 42.6808C337.759 42.5969 338.045 42.5549 338.362 42.5549C338.742 42.5549 339.077 42.6187 339.37 42.7461C339.665 42.8736 339.896 43.0663 340.064 43.3243C340.235 43.5792 340.321 43.8994 340.321 44.2848V46.5277C340.321 46.7577 340.336 46.9644 340.367 47.1478C340.402 47.3281 340.45 47.4851 340.512 47.6188V47.6934H339.36C339.307 47.5721 339.265 47.4183 339.234 47.2317C339.206 47.0421 339.192 46.8587 339.192 46.6815ZM339.356 44.6252L339.365 45.32H338.558C338.35 45.32 338.167 45.3402 338.008 45.3806C337.849 45.4179 337.717 45.4739 337.612 45.5485C337.506 45.6231 337.427 45.7132 337.374 45.8189C337.321 45.9246 337.295 46.0443 337.295 46.1779C337.295 46.3116 337.326 46.4344 337.388 46.5463C337.45 46.6551 337.54 46.7406 337.658 46.8028C337.78 46.8649 337.926 46.896 338.097 46.896C338.327 46.896 338.527 46.8494 338.698 46.7561C338.872 46.6598 339.009 46.5432 339.108 46.4064C339.208 46.2665 339.261 46.1344 339.267 46.0101L339.631 46.509C339.593 46.6365 339.53 46.7732 339.439 46.9193C339.349 47.0654 339.231 47.2053 339.085 47.339C338.942 47.4695 338.77 47.5768 338.568 47.6607C338.369 47.7447 338.139 47.7866 337.877 47.7866C337.548 47.7866 337.254 47.7213 336.996 47.5908C336.738 47.4571 336.536 47.2784 336.39 47.0546C336.244 46.8276 336.171 46.5712 336.171 46.2852C336.171 46.0179 336.221 45.7816 336.32 45.5764C336.423 45.3682 336.572 45.1941 336.768 45.0542C336.967 44.9143 337.209 44.8086 337.495 44.7371C337.781 44.6625 338.107 44.6252 338.474 44.6252H339.356ZM342.624 43.6087V47.6934H341.5V42.6482H342.573L342.624 43.6087ZM344.168 42.6155L344.158 43.66C344.09 43.6476 344.015 43.6383 343.934 43.632C343.857 43.6258 343.779 43.6227 343.701 43.6227C343.509 43.6227 343.339 43.6507 343.193 43.7066C343.047 43.7595 342.924 43.8372 342.825 43.9398C342.728 44.0393 342.654 44.1605 342.601 44.3035C342.548 44.4465 342.517 44.6066 342.508 44.7838L342.251 44.8024C342.251 44.4853 342.282 44.1916 342.344 43.9211C342.407 43.6507 342.5 43.4129 342.624 43.2077C342.752 43.0026 342.91 42.8425 343.1 42.7275C343.293 42.6124 343.515 42.5549 343.767 42.5549C343.835 42.5549 343.908 42.5611 343.986 42.5736C344.067 42.586 344.127 42.6 344.168 42.6155ZM347.003 47.7866C346.63 47.7866 346.292 47.726 345.991 47.6048C345.692 47.4804 345.437 47.3079 345.226 47.0872C345.018 46.8665 344.858 46.6069 344.746 46.3085C344.634 46.0101 344.578 45.6883 344.578 45.3433V45.1568C344.578 44.762 344.635 44.4045 344.75 44.0843C344.865 43.7642 345.026 43.4906 345.231 43.2637C345.436 43.0336 345.678 42.858 345.958 42.7368C346.238 42.6155 346.541 42.5549 346.867 42.5549C347.228 42.5549 347.543 42.6155 347.814 42.7368C348.084 42.858 348.308 43.029 348.485 43.2497C348.666 43.4673 348.799 43.7269 348.886 44.0284C348.976 44.3299 349.022 44.6625 349.022 45.0262V45.5065H345.123V44.6998H347.912V44.6112C347.906 44.4092 347.865 44.2196 347.791 44.0424C347.719 43.8652 347.609 43.7222 347.46 43.6134C347.31 43.5046 347.111 43.4502 346.863 43.4502C346.676 43.4502 346.51 43.4906 346.364 43.5714C346.221 43.6491 346.101 43.7626 346.005 43.9118C345.908 44.061 345.834 44.2413 345.781 44.4527C345.731 44.661 345.706 44.8957 345.706 45.1568V45.3433C345.706 45.564 345.736 45.7692 345.795 45.9588C345.857 46.1453 345.947 46.3085 346.065 46.4484C346.183 46.5883 346.326 46.6986 346.494 46.7794C346.662 46.8572 346.853 46.896 347.068 46.896C347.338 46.896 347.579 46.8416 347.791 46.7328C348.002 46.624 348.185 46.4701 348.341 46.2712L348.933 46.8447C348.824 47.0033 348.683 47.1556 348.509 47.3017C348.335 47.4447 348.122 47.5612 347.87 47.6514C347.621 47.7415 347.332 47.7866 347.003 47.7866Z" fill="#606770"/>
</g>
</g>
</g>
<defs>
<linearGradient id="paint0_linear_1494_59465" x1="28.6309" y1="7.93945" x2="28.6309" y2="20.7715" gradientUnits="userSpaceOnUse">
<stop stop-color="#F95E73"/>
<stop offset="1" stop-color="#E3223C"/>
</linearGradient>
<linearGradient id="paint1_linear_1494_59465" x1="15.7989" y1="7.93945" x2="15.7989" y2="20.7715" gradientUnits="userSpaceOnUse">
<stop stop-color="#48ADF8"/>
<stop offset="1" stop-color="#1E5FED"/>
</linearGradient>
<clipPath id="clip0_1494_59465">
<rect width="343.219" height="15.5179" fill="white" transform="translate(7.89062 6.44922)"/>
</clipPath>
<clipPath id="clip1_1494_59465">
<rect width="48.3342" height="15.5179" fill="white" transform="translate(7.89062 6.44922)"/>
</clipPath>
<clipPath id="clip2_1494_59465">
<rect width="28.35" height="15.5179" fill="white" transform="translate(7.89062 6.44922)"/>
</clipPath>
<clipPath id="clip3_1494_59465">
<rect width="15.5179" height="15.5179" fill="white" transform="translate(20.7227 6.44922)"/>
</clipPath>
<clipPath id="clip4_1494_59465">
<rect width="15.5179" height="15.5179" fill="white" transform="translate(20.7227 6.44922)"/>
</clipPath>
<clipPath id="clip5_1494_59465">
<rect width="15.5179" height="15.5179" fill="white" transform="translate(7.89062 6.44922)"/>
</clipPath>
<clipPath id="clip6_1494_59465">
<rect width="106.879" height="13" fill="white" transform="translate(244.23 7.70898)"/>
</clipPath>
<clipPath id="clip7_1494_59465">
<rect width="231.947" height="17.01" fill="white" transform="translate(118.398 35.6934)"/>
</clipPath>
<clipPath id="clip8_1494_59465">
<rect width="231.947" height="17.01" fill="white" transform="translate(118.398 35.6934)"/>
</clipPath>
<clipPath id="clip9_1494_59465">
<rect width="34.3184" height="17.01" fill="white" transform="translate(118.398 35.6934)"/>
</clipPath>
<clipPath id="clip10_1494_59465">
<rect width="59.0873" height="17.01" fill="white" transform="translate(199.867 35.6934)"/>
</clipPath>
<clipPath id="clip11_1494_59465">
<rect width="44.2409" height="17.01" fill="white" transform="translate(306.105 35.6934)"/>
</clipPath>
</defs>
</svg>
