<svg width="16" height="14" viewBox="0 0 16 14" fill="none" xmlns="http://www.w3.org/2000/svg">
<path d="M13.4 0C14.786 0 15.92 1.187 15.996 2.682L16 2.844V11.156C16 12.673 14.915 13.912 13.547 13.996L13.4 14H2.6C1.214 14 0.0799999 12.813 0.00399995 11.318L0 11.156V2.844C0 1.327 1.085 0.0879999 2.452 0.00399995L2.6 0H13.4ZM13.25 1H2.75C1.824 1 1.066 1.793 1.004 2.797L1 2.929V11.071C1 12.092 1.72 12.928 2.63 12.996L2.75 13H13.25C14.176 13 14.934 12.207 14.996 11.204L15 11.07V2.93C15 1.909 14.28 1.073 13.37 1.005L13.25 1ZM4.851 4.002C5.471 4.00067 5.998 4.10033 6.432 4.301C6.699 4.425 6.806 4.725 6.672 4.972C6.60099 5.09342 6.48688 5.18367 6.35236 5.2248C6.21785 5.26594 6.07278 5.25494 5.946 5.194C5.678 5.069 5.314 5.002 4.851 5.002C3.825 5.002 3.081 5.834 3.081 7.002C3.081 8.121 3.894 9 4.851 9C5.448 9 5.853 8.649 5.911 8.327L5.919 8.247V7.501L5.54 7.5C5.242 7.5 5 7.276 5 7C5 6.755 5.191 6.55 5.443 6.508L5.541 6.5L6.459 6.501C6.58139 6.49737 6.70126 6.53623 6.79824 6.61097C6.89522 6.68571 6.96333 6.79173 6.991 6.911L7 7.001V8.247C7 9.124 6.114 10 4.851 10C3.256 10 2 8.642 2 7.001C2 5.32 3.177 4.002 4.851 4.002ZM9 4C9.11703 3.99996 9.23036 4.04097 9.32026 4.11589C9.41016 4.19081 9.47093 4.29489 9.492 4.41L9.5 4.5V9.5C9.50023 9.62495 9.45367 9.74545 9.36949 9.83778C9.28531 9.93012 9.16961 9.98759 9.04518 9.99888C8.92074 10.0102 8.79659 9.97446 8.69717 9.89878C8.59775 9.8231 8.53026 9.71295 8.508 9.59L8.5 9.5V4.5C8.5 4.36739 8.55268 4.24021 8.64645 4.14645C8.74021 4.05268 8.86739 4 9 4ZM13.5 4C13.6249 3.99977 13.7455 4.04633 13.8378 4.13051C13.9301 4.21469 13.9876 4.33039 13.9989 4.45482C14.0102 4.57926 13.9745 4.70341 13.8988 4.80283C13.8231 4.90225 13.7129 4.96974 13.59 4.992L13.5 5H12V7H13.5C13.6249 6.99977 13.7455 7.04633 13.8378 7.13051C13.9301 7.21469 13.9876 7.33039 13.9989 7.45482C14.0102 7.57926 13.9745 7.70341 13.8988 7.80283C13.8231 7.90225 13.7129 7.96974 13.59 7.992L13.5 8H12V9.5C12.0002 9.62495 11.9537 9.74545 11.8695 9.83778C11.7853 9.93012 11.6696 9.98759 11.5452 9.99888C11.4207 10.0102 11.2966 9.97446 11.1972 9.89878C11.0977 9.8231 11.0303 9.71295 11.008 9.59L11 9.5V4.5C11 4.36739 11.0527 4.24021 11.1464 4.14645C11.2402 4.05268 11.3674 4 11.5 4H13.5Z" fill="#4B4652"/>
</svg>
