<svg width="15" height="14" viewBox="0 0 15 14" fill="none" xmlns="http://www.w3.org/2000/svg">
<path d="M14.5588 4.13301H10.8088L11.4625 0.535218C11.4751 0.477329 11.476 0.417489 11.465 0.359269C11.454 0.301048 11.4314 0.24564 11.3985 0.19635C11.3656 0.14706 11.3231 0.104898 11.2736 0.0723801C11.2241 0.039862 11.1685 0.0176539 11.1102 0.0070809C11.0519 -0.00349207 10.9921 -0.00221324 10.9343 0.0108409C10.8765 0.0238951 10.8219 0.048457 10.7738 0.0830615C10.7257 0.117666 10.6851 0.161604 10.6543 0.212254C10.6236 0.262904 10.6034 0.319227 10.5949 0.377865L9.9125 4.13301H6.10294L6.75662 0.535218C6.77302 0.422097 6.74488 0.307026 6.67812 0.214243C6.61137 0.121459 6.5112 0.0582072 6.39873 0.0378103C6.28626 0.0174133 6.17027 0.0414637 6.07518 0.104895C5.98009 0.168327 5.91334 0.266188 5.88897 0.377865L5.20662 4.13301H1.61765C1.50064 4.13301 1.38842 4.17949 1.30569 4.26223C1.22295 4.34497 1.17647 4.45718 1.17647 4.57419C1.17647 4.6912 1.22295 4.80341 1.30569 4.88615C1.38842 4.96888 1.50064 5.01536 1.61765 5.01536H5.04632L4.35074 8.83889H0.441176C0.324169 8.83889 0.211954 8.88537 0.129218 8.96811C0.0464809 9.05085 0 9.16306 0 9.28007C0 9.39708 0.0464809 9.50929 0.129218 9.59203C0.211954 9.67477 0.324169 9.72125 0.441176 9.72125H4.19118L3.53676 13.319C3.52615 13.3762 3.52693 13.4348 3.53905 13.4917C3.55117 13.5485 3.5744 13.6024 3.60739 13.6502C3.64039 13.698 3.68252 13.7388 3.73134 13.7703C3.78017 13.8018 3.83474 13.8234 3.89191 13.8337C3.91791 13.838 3.94426 13.8397 3.97059 13.8389C4.07377 13.8387 4.17361 13.8023 4.25274 13.736C4.33187 13.6698 4.38528 13.5779 4.40368 13.4764L5.0875 9.72125H8.89706L8.24338 13.319C8.23277 13.3762 8.23354 13.4348 8.24566 13.4917C8.25779 13.5485 8.28101 13.6024 8.31401 13.6502C8.34701 13.698 8.38913 13.7388 8.43796 13.7703C8.48679 13.8018 8.54135 13.8234 8.59853 13.8337C8.6247 13.8388 8.6513 13.8412 8.67794 13.8411C8.78113 13.8409 8.88097 13.8045 8.96009 13.7382C9.03922 13.672 9.09263 13.5801 9.11103 13.4786L9.79338 9.72125H13.3824C13.4994 9.72125 13.6116 9.67477 13.6943 9.59203C13.777 9.50929 13.8235 9.39708 13.8235 9.28007C13.8235 9.16306 13.777 9.05085 13.6943 8.96811C13.6116 8.88537 13.4994 8.83889 13.3824 8.83889H9.95368L10.6493 5.01536H14.5588C14.6758 5.01536 14.788 4.96888 14.8708 4.88615C14.9535 4.80341 15 4.6912 15 4.57419C15 4.45718 14.9535 4.34497 14.8708 4.26223C14.788 4.17949 14.6758 4.13301 14.5588 4.13301ZM9.05662 8.83889H5.24779L5.94338 5.01536H9.75221L9.05662 8.83889Z" fill="#4B4652"/>
</svg>
