<svg width="16" height="14" viewBox="0 0 16 14" xmlns="http://www.w3.org/2000/svg">
<path d="M1 8.0769H3.77128C4.07124 8.07698 4.36525 8.16057 4.62038 8.31832C4.87551 8.47606 5.08168 8.70173 5.21579 8.97003L5.39959 9.33762C5.53376 9.60604 5.74004 9.83177 5.99531 9.98952C6.25058 10.1473 6.54474 10.2308 6.84482 10.2307H9.15518C9.45526 10.2308 9.74942 10.1473 10.0047 9.98952C10.26 9.83177 10.4662 9.60604 10.6004 9.33762L10.7842 8.97003C10.9184 8.70162 11.1247 8.47588 11.3799 8.31813C11.6352 8.16038 11.9294 8.07685 12.2294 8.0769H15M1 8.31957V11.3077C1 11.7361 1.17019 12.147 1.47314 12.4499C1.77608 12.7529 2.18696 12.9231 2.61538 12.9231H13.3846C13.813 12.9231 14.2239 12.7529 14.5269 12.4499C14.8298 12.147 15 11.7361 15 11.3077V8.31957C15 8.15779 14.9761 7.9996 14.9282 7.84501L13.1979 2.21701C13.0963 1.88692 12.8916 1.5981 12.6138 1.39291C12.336 1.18772 11.9997 1.07697 11.6544 1.0769H4.34636C4.00099 1.07697 3.66473 1.18772 3.38692 1.39291C3.10912 1.5981 2.90438 1.88692 2.80277 2.21701L1.07179 7.84501C1.02488 7.99885 1.00069 8.15873 1 8.31957Z" fill="transparent" stroke="#4B4652" stroke-width="1.2" stroke-linecap="round"/>
</svg>
