  <svg width="19" height="17" viewBox="0 0 19 17" fill="none" xmlns="http://www.w3.org/2000/svg">
<g clip-path="url(#clip0_1_1860)">
<path d="M17.8594 15.1866C17.8986 15.187 17.9375 15.1794 17.9736 15.1643C18.0097 15.1493 18.0422 15.127 18.0693 15.0989C18.0963 15.0708 18.1172 15.0375 18.1307 15.0011C18.1443 14.9647 18.1501 14.9259 18.1478 14.8872C18.1478 14.6748 18.0184 14.5734 17.7529 14.5734H17.324V15.6852H17.4853V15.2006H17.6836L17.6881 15.2065L17.9958 15.6852H18.1683L17.8373 15.1897L17.8594 15.1866ZM17.6729 15.0753H17.4858V14.6994H17.7229C17.8454 14.6994 17.985 14.7192 17.985 14.878C17.985 15.0606 17.8437 15.0753 17.6719 15.0753" fill="#0A66C2"/>
<path d="M13.6506 13.7926H11.3628V10.2451C11.3628 9.39921 11.3476 8.31024 10.1729 8.31024C8.98138 8.31024 8.79907 9.23191 8.79907 10.1836V13.7924H6.51127V6.49732H8.70755V7.49427H8.7383C8.9581 7.12217 9.27571 6.81605 9.65731 6.60854C10.0389 6.40102 10.4702 6.29988 10.9053 6.31587C13.224 6.31587 13.6516 7.82604 13.6516 9.79068L13.6506 13.7926ZM3.92989 5.50014C3.6673 5.50018 3.4106 5.42313 3.19225 5.27873C2.97389 5.13432 2.8037 4.92904 2.70317 4.68886C2.60264 4.44867 2.5763 4.18436 2.62748 3.92935C2.67866 3.67434 2.80506 3.44009 2.9907 3.25621C3.17634 3.07234 3.41288 2.94709 3.67041 2.89633C3.92794 2.84556 4.19488 2.87154 4.43749 2.971C4.6801 3.07045 4.88748 3.2389 5.0334 3.45505C5.17932 3.67121 5.25724 3.92535 5.25728 4.18534C5.25731 4.35797 5.223 4.52892 5.15631 4.68842C5.08962 4.84792 4.99186 4.99285 4.8686 5.11494C4.74534 5.23703 4.59899 5.33389 4.43793 5.39998C4.27686 5.46607 4.10423 5.50011 3.92989 5.50014ZM5.07378 13.7926H2.78361V6.49732H5.07378V13.7926ZM14.7912 0.767399H1.634C1.33537 0.764062 1.0476 0.878254 0.833958 1.08488C0.620315 1.29151 0.498274 1.57367 0.494629 1.86935V14.951C0.498149 15.2468 0.620119 15.5292 0.833755 15.736C1.04739 15.9428 1.33522 16.0573 1.634 16.0541H14.7912C15.0905 16.0578 15.3792 15.9437 15.5937 15.7369C15.8081 15.5301 15.9309 15.2474 15.9351 14.951V1.86841C15.9308 1.57214 15.8079 1.28966 15.5934 1.08304C15.379 0.876413 15.0904 0.762547 14.7912 0.766455" fill="#0A66C2"/>
<path d="M17.6922 14.0769C17.4138 14.0796 17.1478 14.1912 16.9524 14.3875C16.757 14.5838 16.6481 14.8487 16.6494 15.1244C16.6508 15.4 16.7623 15.6638 16.9596 15.8583C17.1569 16.0527 17.4239 16.1618 17.7023 16.1618C17.9806 16.1618 18.2477 16.0527 18.445 15.8583C18.6423 15.6638 18.7538 15.4 18.7551 15.1244C18.7565 14.8487 18.6475 14.5838 18.4521 14.3875C18.2567 14.1912 17.9907 14.0796 17.7124 14.0769H17.6922ZM17.6922 16.0425C17.5096 16.0455 17.3302 15.9948 17.1767 15.8969C17.0232 15.799 16.9025 15.6582 16.8298 15.4923C16.7572 15.3265 16.7358 15.143 16.7684 14.9651C16.8011 14.7872 16.8863 14.6229 17.0132 14.493C17.1402 14.363 17.3032 14.2732 17.4816 14.235C17.6601 14.1968 17.846 14.2118 18.0158 14.2782C18.1857 14.3446 18.3318 14.4594 18.4358 14.608C18.5397 14.7567 18.5968 14.9325 18.5999 15.1133C18.5999 15.1185 18.5999 15.1234 18.5999 15.1286C18.605 15.3657 18.5148 15.5952 18.3491 15.7665C18.1833 15.9378 17.9557 16.0369 17.7162 16.042H17.6924" fill="#0A66C2"/>
</g>
<defs>
<clipPath id="clip0_1_1860">
<rect width="18.2604" height="15.4146" fill="white" transform="translate(0.495117 0.766602)"/>
</clipPath>
</defs>
</svg>
