<svg width="14" height="16" viewBox="0 0 14 16" fill="none" xmlns="http://www.w3.org/2000/svg">
<path d="M10.0004 6.99951C10.0004 7.79515 9.68436 8.55822 9.12176 9.12083C8.55915 9.68343 7.79608 9.99951 7.00043 9.99951C6.20478 9.99951 5.44172 9.68343 4.87911 9.12083C4.3165 8.55822 4.00043 7.79515 4.00043 6.99951C4.00043 6.20386 4.3165 5.44079 4.87911 4.87818C5.44172 4.31558 6.20478 3.99951 7.00043 3.99951C7.79608 3.99951 8.55915 4.31558 9.12176 4.87818C9.68436 5.44079 10.0004 6.20386 10.0004 6.99951ZM9.00043 6.99951C9.00043 6.46907 8.78972 5.96036 8.41465 5.58529C8.03958 5.21022 7.53087 4.99951 7.00043 4.99951C6.47 4.99951 5.96129 5.21022 5.58622 5.58529C5.21115 5.96036 5.00043 6.46907 5.00043 6.99951C5.00043 7.52994 5.21115 8.03865 5.58622 8.41372C5.96129 8.78879 6.47 8.99951 7.00043 8.99951C7.53087 8.99951 8.03958 8.78879 8.41465 8.41372C8.78972 8.03865 9.00043 7.52994 9.00043 6.99951ZM11.9504 11.9545C13.2633 10.6409 14.0009 8.85972 14.0009 7.00251C14.0009 5.14529 13.2633 3.36409 11.9504 2.05051C11.3004 1.40042 10.5287 0.884739 9.67938 0.532912C8.83006 0.181084 7.91975 0 7.00043 0C6.08112 0 5.17081 0.181084 4.32149 0.532912C3.47216 0.884739 2.70045 1.40042 2.05043 2.05051C0.737527 3.36409 0 5.14529 0 7.00251C0 8.85972 0.737527 10.6409 2.05043 11.9545L3.57143 13.4535L5.61443 15.4385L5.74743 15.5565C6.52243 16.1845 7.65743 16.1445 8.38743 15.4385L10.8224 13.0685L11.9504 11.9545ZM2.75543 2.75551C3.31267 2.19765 3.9744 1.75509 4.70279 1.45315C5.43118 1.1512 6.21194 0.995785 7.00043 0.995785C7.78893 0.995785 8.56969 1.1512 9.29808 1.45315C10.0265 1.75509 10.6882 2.19765 11.2454 2.75551C12.3397 3.8512 12.9688 5.32699 13.0016 6.87517C13.0344 8.42336 12.4683 9.92446 11.4214 11.0655L11.2454 11.2495L9.92443 12.5535L7.69443 14.7225L7.60043 14.8025C7.42723 14.9322 7.21664 15.0022 7.00027 15.002C6.7839 15.0018 6.57342 14.9315 6.40043 14.8015L6.30743 14.7215L3.32743 11.8165L2.75543 11.2495L2.57943 11.0665C1.53254 9.92546 0.966485 8.42436 0.999275 6.87617C1.03206 5.32799 1.66117 3.8512 2.75543 2.75551Z" fill="#4B4652"/>
</svg>
