<svg width="9" height="8" viewBox="0 0 9 8" fill="none" xmlns="http://www.w3.org/2000/svg">
<path d="M5.18904 0.610081C5.16478 0.585936 5.13601 0.566806 5.10436 0.553783C5.07271 0.540759 5.0388 0.534097 5.00457 0.534177C4.97035 0.534257 4.93647 0.541077 4.90488 0.554248C4.8733 0.56742 4.84461 0.586684 4.82047 0.610942C4.79632 0.6352 4.77719 0.663975 4.76417 0.695626C4.75114 0.727276 4.74448 0.761182 4.74456 0.795408C4.74464 0.829633 4.75146 0.863508 4.76463 0.895097C4.7778 0.926687 4.79707 0.955373 4.82133 0.979517L7.64601 3.79319L1.1341 3.67953C1.06503 3.67832 0.998303 3.70461 0.948607 3.7526C0.898911 3.80059 0.870315 3.86636 0.869109 3.93543C0.867903 4.00451 0.894187 4.07123 0.942178 4.12093C0.990169 4.17062 1.05594 4.19922 1.12501 4.20043L7.63692 4.31409L4.71575 7.02782C4.66754 7.07541 4.63977 7.13991 4.63832 7.20763C4.63687 7.27536 4.66186 7.34099 4.70798 7.39059C4.75411 7.4402 4.81775 7.46989 4.88541 7.47336C4.95306 7.47682 5.0194 7.4538 5.07036 7.40917L8.39934 4.31698C8.43357 4.28517 8.46103 4.24678 8.48007 4.2041C8.49911 4.16143 8.50935 4.11535 8.51016 4.06863C8.51098 4.02191 8.50236 3.97551 8.48482 3.93219C8.46728 3.88888 8.44118 3.84956 8.40808 3.81657L5.18904 0.610081Z" fill="white"/>
</svg>
