<svg width="17" height="16" viewBox="0 0 17 16" fill="#000000" xmlns="http://www.w3.org/2000/svg">
        <path  d="M4.35629 0.350098C3.65181 0.350098 2.97618 0.629951 2.47804 1.12809C1.9799 1.62623 1.70005 2.30186 1.70005 3.00634V5.44796L0.881075 4.73183C0.828556 4.6859 0.767505 4.65076 0.701406 4.62842C0.635307 4.60609 0.565456 4.59698 0.49584 4.60164C0.426224 4.6063 0.358207 4.62462 0.295672 4.65556C0.233138 4.68651 0.17731 4.72947 0.131377 4.78198C0.0854444 4.8345 0.0503055 4.89555 0.0279671 4.96165C0.00562859 5.02775 -0.00347207 5.0976 0.00118477 5.16722C0.00584161 5.23683 0.0241648 5.30485 0.055108 5.36739C0.0860512 5.42992 0.129008 5.48575 0.181527 5.53168L1.88152 7.01918C1.97836 7.10388 2.10264 7.15057 2.2313 7.15057C2.35995 7.15057 2.48423 7.10388 2.58107 7.01918L4.28106 5.53168C4.38713 5.43892 4.452 5.30781 4.46141 5.16722C4.47081 5.02662 4.42398 4.88805 4.33121 4.78198C4.23845 4.67592 4.10735 4.61105 3.96675 4.60164C3.82616 4.59224 3.68758 4.63907 3.58152 4.73183L2.76254 5.44796V3.00634C2.76254 2.58365 2.93046 2.17828 3.22934 1.87939C3.52823 1.58051 3.9336 1.41259 4.35629 1.41259H14.3438C14.7664 1.41259 15.1718 1.58051 15.4707 1.87939C15.7696 2.17828 15.9375 2.58365 15.9375 3.00634V3.75009H4.03754V3.75434C4.39794 3.78165 4.73315 3.94956 4.97084 4.22184C5.12426 4.39736 5.22584 4.60051 5.27556 4.81258H15.9375V12.9938C15.9375 13.4165 15.7696 13.8219 15.4707 14.1208C15.1718 14.4196 14.7664 14.5876 14.3438 14.5876H4.35629C3.9336 14.5876 3.52823 14.4196 3.22934 14.1208C2.93046 13.8219 2.76254 13.4165 2.76254 12.9938V9.38132C2.76254 9.24042 2.70657 9.1053 2.60695 9.00567C2.50732 8.90604 2.37219 8.85007 2.2313 8.85007C2.0904 8.85007 1.95527 8.90604 1.85565 9.00567C1.75602 9.1053 1.70005 9.24042 1.70005 9.38132V12.9938C1.70005 13.6983 1.9799 14.3739 2.47804 14.8721C2.97618 15.3702 3.65181 15.6501 4.35629 15.6501H14.3438C15.0482 15.6501 15.7239 15.3702 16.222 14.8721C16.7201 14.3739 17 13.6983 17 12.9938V3.00634C17 2.30186 16.7201 1.62623 16.222 1.12809C15.7239 0.629951 15.0482 0.350098 14.3438 0.350098H4.35629ZM6.80003 7.78757C6.80003 8.06937 6.68809 8.33962 6.48883 8.53887C6.28958 8.73813 6.01933 8.85007 5.73753 8.85007C5.45574 8.85007 5.18549 8.73813 4.98624 8.53887C4.78698 8.33962 4.67504 8.06937 4.67504 7.78757C4.67504 7.50578 4.78698 7.23553 4.98624 7.03628C5.18549 6.83702 5.45574 6.72508 5.73753 6.72508C6.01933 6.72508 6.28958 6.83702 6.48883 7.03628C6.68809 7.23553 6.80003 7.50578 6.80003 7.78757ZM9.35002 8.85007C9.63181 8.85007 9.90207 8.73813 10.1013 8.53887C10.3006 8.33962 10.4125 8.06937 10.4125 7.78757C10.4125 7.50578 10.3006 7.23553 10.1013 7.03628C9.90207 6.83702 9.63181 6.72508 9.35002 6.72508C9.06823 6.72508 8.79798 6.83702 8.59873 7.03628C8.39947 7.23553 8.28753 7.50578 8.28753 7.78757C8.28753 8.06937 8.39947 8.33962 8.59873 8.53887C8.79798 8.73813 9.06823 8.85007 9.35002 8.85007ZM14.025 7.78757C14.025 8.06937 13.9131 8.33962 13.7138 8.53887C13.5146 8.73813 13.2443 8.85007 12.9625 8.85007C12.6807 8.85007 12.4105 8.73813 12.2112 8.53887C12.012 8.33962 11.9 8.06937 11.9 7.78757C11.9 7.50578 12.012 7.23553 12.2112 7.03628C12.4105 6.83702 12.6807 6.72508 12.9625 6.72508C13.2443 6.72508 13.5146 6.83702 13.7138 7.03628C13.9131 7.23553 14.025 7.50578 14.025 7.78757ZM5.73753 12.2501C6.01933 12.2501 6.28958 12.1381 6.48883 11.9389C6.68809 11.7396 6.80003 11.4694 6.80003 11.1876C6.80003 10.9058 6.68809 10.6355 6.48883 10.4363C6.28958 10.237 6.01933 10.1251 5.73753 10.1251C5.45574 10.1251 5.18549 10.237 4.98624 10.4363C4.78698 10.6355 4.67504 10.9058 4.67504 11.1876C4.67504 11.4694 4.78698 11.7396 4.98624 11.9389C5.18549 12.1381 5.45574 12.2501 5.73753 12.2501ZM10.4125 11.1876C10.4125 11.4694 10.3006 11.7396 10.1013 11.9389C9.90207 12.1381 9.63181 12.2501 9.35002 12.2501C9.06823 12.2501 8.79798 12.1381 8.59873 11.9389C8.39947 11.7396 8.28753 11.4694 8.28753 11.1876C8.28753 10.9058 8.39947 10.6355 8.59873 10.4363C8.79798 10.237 9.06823 10.1251 9.35002 10.1251C9.63181 10.1251 9.90207 10.237 10.1013 10.4363C10.3006 10.6355 10.4125 10.9058 10.4125 11.1876Z"/>
        </svg>