<svg width="14" height="14" viewBox="0 0 14 14" fill="none" xmlns="http://www.w3.org/2000/svg">
<path d="M8.15953 2.77454C8.15953 2.88125 8.2025 2.98359 8.27898 3.05905C8.35546 3.1345 8.45919 3.17689 8.56735 3.17689C8.67552 3.17689 8.77925 3.1345 8.85573 3.05905C8.93221 2.98359 8.97518 2.88125 8.97518 2.77454V1.30274C8.97518 1.19603 8.93221 1.09369 8.85573 1.01824C8.77925 0.942781 8.67552 0.900391 8.56735 0.900391C8.45919 0.900391 8.35546 0.942781 8.27898 1.01824C8.2025 1.09369 8.15953 1.19603 8.15953 1.30274V2.77454ZM11.83 2.80271C11.9042 2.72682 11.9453 2.62519 11.9444 2.51969C11.9435 2.4142 11.9006 2.31328 11.825 2.23868C11.7494 2.16408 11.6471 2.12177 11.5402 2.12085C11.4332 2.11994 11.3302 2.16049 11.2533 2.23378L10.1987 3.27426C10.1597 3.31138 10.1286 3.35577 10.1073 3.40486C10.0859 3.45395 10.0746 3.50675 10.0742 3.56017C10.0737 3.61359 10.084 3.66658 10.1045 3.71602C10.125 3.76547 10.1553 3.81039 10.1936 3.84817C10.2319 3.88595 10.2774 3.91583 10.3275 3.93606C10.3777 3.95629 10.4314 3.96647 10.4855 3.966C10.5397 3.96554 10.5932 3.95444 10.6429 3.93335C10.6927 3.91227 10.7377 3.88161 10.7753 3.84318L11.83 2.80271ZM6.35939 3.84318C6.39701 3.88161 6.44201 3.91227 6.49177 3.93335C6.54152 3.95444 6.59504 3.96554 6.64919 3.966C6.70334 3.96647 6.75704 3.95629 6.80716 3.93606C6.85728 3.91583 6.90282 3.88595 6.94111 3.84817C6.9794 3.81039 7.00968 3.76547 7.03019 3.71602C7.0507 3.66658 7.06101 3.61359 7.06054 3.56017C7.06007 3.50675 7.04882 3.45395 7.02745 3.40486C7.00608 3.35577 6.97501 3.31138 6.93605 3.27426L5.88142 2.23378C5.8045 2.16049 5.70149 2.11994 5.59455 2.12085C5.48762 2.12177 5.38534 2.16408 5.30972 2.23868C5.23411 2.31328 5.19122 2.4142 5.19029 2.51969C5.18936 2.62519 5.23047 2.72682 5.30475 2.80271L6.35939 3.84318ZM5.85287 5.85494C5.96103 5.85494 6.06477 5.81255 6.14125 5.73709C6.21773 5.66164 6.2607 5.5593 6.2607 5.45259C6.2607 5.34588 6.21773 5.24354 6.14125 5.16808C6.06477 5.09263 5.96103 5.05024 5.85287 5.05024H4.36105C4.25289 5.05024 4.14915 5.09263 4.07267 5.16808C3.99619 5.24354 3.95322 5.34588 3.95322 5.45259C3.95322 5.5593 3.99619 5.66164 4.07267 5.73709C4.14915 5.81255 4.25289 5.85494 4.36105 5.85494H5.85287ZM12.7737 5.85494C12.8818 5.85494 12.9856 5.81255 13.062 5.73709C13.1385 5.66164 13.1815 5.5593 13.1815 5.45259C13.1815 5.34588 13.1385 5.24354 13.062 5.16808C12.9856 5.09263 12.8818 5.05024 12.7737 5.05024H11.2818C11.1737 5.05024 11.0699 5.09263 10.9935 5.16808C10.917 5.24354 10.874 5.34588 10.874 5.45259C10.874 5.5593 10.917 5.66164 10.9935 5.73709C11.0699 5.81255 11.1737 5.85494 11.2818 5.85494H12.7737ZM11.2533 8.67139C11.2909 8.70982 11.3359 8.74047 11.3857 8.76156C11.4354 8.78265 11.4889 8.79375 11.5431 8.79421C11.5972 8.79468 11.6509 8.7845 11.7011 8.76427C11.7512 8.74403 11.7967 8.71416 11.835 8.67638C11.8733 8.6386 11.9036 8.59368 11.9241 8.54423C11.9446 8.49479 11.9549 8.4418 11.9544 8.38838C11.954 8.33496 11.9427 8.28216 11.9213 8.23307C11.9 8.18398 11.8689 8.13959 11.83 8.10247L10.7753 7.06199C10.7377 7.02356 10.6927 6.99291 10.6429 6.97182C10.5932 6.95074 10.5397 6.93964 10.4855 6.93917C10.4314 6.93871 10.3777 6.94889 10.3275 6.96912C10.2774 6.98935 10.2319 7.01923 10.1936 7.057C10.1553 7.09478 10.125 7.1397 10.1045 7.18915C10.084 7.2386 10.0737 7.29158 10.0742 7.34501C10.0746 7.39843 10.0859 7.45123 10.1073 7.50031C10.1286 7.5494 10.1597 7.5938 10.1987 7.63091L11.2533 8.67139ZM8.15953 9.60243C8.15953 9.70914 8.2025 9.81148 8.27898 9.88694C8.35546 9.96239 8.45919 10.0048 8.56735 10.0048C8.67552 10.0048 8.77925 9.96239 8.85573 9.88694C8.93221 9.81148 8.97518 9.70914 8.97518 9.60243V8.13063C8.97518 8.02392 8.93221 7.92158 8.85573 7.84613C8.77925 7.77067 8.67552 7.72828 8.56735 7.72828C8.45919 7.72828 8.35546 7.77067 8.27898 7.84613C8.2025 7.92158 8.15953 8.02392 8.15953 8.13063V9.60243ZM9.67174 5.50087C9.74795 5.42545 9.79074 5.3233 9.79074 5.21681C9.79074 5.11032 9.74795 5.00817 9.67174 4.93275L9.09426 4.36302C9.01779 4.28759 8.91407 4.24522 8.80593 4.24522C8.69779 4.24522 8.59408 4.28759 8.5176 4.36302L7.46296 5.40431C7.38651 5.47976 7.34356 5.58208 7.34356 5.68877C7.34356 5.79546 7.38651 5.89778 7.46296 5.97323L8.04044 6.54296C8.11692 6.61839 8.22064 6.66076 8.32878 6.66076C8.43692 6.66076 8.54063 6.61839 8.61711 6.54296L9.67174 5.50248V5.50087ZM7.22479 7.91497C7.301 7.83956 7.34379 7.73741 7.34379 7.63091C7.34379 7.52442 7.301 7.42227 7.22479 7.34686L6.64731 6.77713C6.57084 6.7017 6.46712 6.65932 6.35898 6.65932C6.25084 6.65932 6.14713 6.7017 6.07065 6.77713L0.937765 11.8419C0.86131 11.9174 0.818359 12.0197 0.818359 12.1264C0.818359 12.2331 0.86131 12.3354 0.937765 12.4108L1.51525 12.9806C1.59172 13.056 1.69544 13.0984 1.80358 13.0984C1.91172 13.0984 2.01543 13.056 2.09191 12.9806L7.22479 7.91497Z" fill="white"/>
</svg>
