<svg width="13" height="3" viewBox="0 0 13 3" fill="none" xmlns="http://www.w3.org/2000/svg">
<path d="M7.55863 1.61311C7.55863 1.26456 7.42458 0.969641 7.18328 0.701529C6.91516 0.460228 6.62024 0.326172 6.27169 0.326172C5.89634 0.326172 5.60141 0.460228 5.36011 0.701529C5.092 0.969641 4.98476 1.26456 4.98476 1.61311C4.98476 1.98847 5.092 2.28339 5.36011 2.52469C5.60141 2.7928 5.89634 2.90005 6.27169 2.90005C6.62024 2.90005 6.91516 2.7928 7.18328 2.52469C7.42458 2.28339 7.55863 1.98847 7.55863 1.61311ZM10.776 0.326172C11.1245 0.326172 11.4194 0.460228 11.6876 0.701529C11.9289 0.969641 12.0629 1.26456 12.0629 1.61311C12.0629 1.98847 11.9289 2.28339 11.6876 2.52469C11.4194 2.7928 11.1245 2.90005 10.776 2.90005C10.4006 2.90005 10.1057 2.7928 9.8644 2.52469C9.59629 2.28339 9.48904 1.98847 9.48904 1.61311C9.48904 1.26456 9.59629 0.969641 9.8644 0.701529C10.1057 0.460228 10.4006 0.326172 10.776 0.326172ZM1.76741 0.326172C2.11595 0.326172 2.41088 0.460228 2.67899 0.701529C2.92029 0.969641 3.05435 1.26456 3.05435 1.61311C3.05435 1.98847 2.92029 2.28339 2.67899 2.52469C2.41088 2.7928 2.11595 2.90005 1.76741 2.90005C1.39205 2.90005 1.09713 2.7928 0.855826 2.52469C0.587714 2.28339 0.480469 1.98847 0.480469 1.61311C0.480469 1.26456 0.587714 0.969641 0.855826 0.701529C1.09713 0.460228 1.39205 0.326172 1.76741 0.326172Z" fill="#606770"/>
</svg>
